<?xml version="1.0" encoding="UTF-8"?>
<svg id="_图层_1" data-name="图层 1" xmlns="http://www.w3.org/2000/svg" viewBox="0 0 1920 1080">
  <defs>
    <style>
      .cls-1 {
        fill: #63b1c5;
      }

      .cls-2 {
        fill: #a9cfd7;
      }

      .cls-3 {
        fill: #9ac1cc;
      }

      .cls-4 {
        fill: #9ec9d4;
      }

      .cls-5 {
        fill: #397b99;
      }

      .cls-6 {
        fill: #a0cad5;
      }

      .cls-7 {
        fill: #b7c874;
      }

      .cls-8 {
        fill: #bacb69;
      }

      .cls-9 {
        fill: #92c4d3;
      }

      .cls-10 {
        fill: #9ac5d2;
      }

      .cls-11 {
        fill: #b6c969;
      }

      .cls-12 {
        fill: #a4ced7;
      }

      .cls-13 {
        fill: #baca6d;
      }

      .cls-14 {
        fill: #3a819d;
      }

      .cls-15 {
        fill: #a3cedb;
      }

      .cls-16 {
        fill: #2d322d;
      }

      .cls-17 {
        fill: #397e99;
      }

      .cls-18 {
        fill: #b4c66b;
      }

      .cls-19 {
        fill: #438caa;
      }

      .cls-20 {
        fill: #9bc7d2;
      }

      .cls-21 {
        fill: #b7c671;
      }

      .cls-22 {
        fill: #a4c6d0;
      }

      .cls-23 {
        fill: #abcfd6;
      }

      .cls-24 {
        fill: #9dc9d5;
      }

      .cls-25 {
        fill: #9bc8d6;
      }

      .cls-26 {
        fill: #a2ccd7;
      }

      .cls-27 {
        fill: #9fccd7;
      }

      .cls-28 {
        fill: #a6ccd3;
      }

      .cls-29 {
        fill: #a0ccd7;
      }

      .cls-30 {
        fill: #a7cdd4;
      }

      .cls-31 {
        fill: #93c8d8;
      }

      .cls-32 {
        fill: #a0c7d2;
      }

      .cls-33 {
        fill: #97c4d0;
      }

      .cls-34 {
        fill: #b9c96a;
      }

      .cls-35 {
        fill: #9cc8d4;
      }

      .cls-36 {
        fill: #3b819f;
      }

      .cls-37 {
        fill: #aebe6a;
      }

      .cls-38 {
        fill: #9ccbd6;
      }

      .cls-39 {
        fill: #3e82a1;
      }

      .cls-40 {
        fill: #39809c;
      }

      .cls-41 {
        fill: #bac96d;
      }

      .cls-42 {
        fill: #acbc67;
      }
    </style>
  </defs>
  <path class="cls-8" d="M357,0c.9.14,2.07.76,1.89,1.39-2.47,8.62-13.41,10-18.55,2.64-12,7-23.87,6.48-36.72,3.21-4.68-1.43-7.1.86-7.27,6.88-9.47,17.2-15.86,9.55-20.67-5.11l-2.95,1.14c-8.8,7.97-15.88,12.66-22.26-1.27-4.33,3.92-8.99,3.26-13.97-1.97-16.26,7.46-33.97,13-52.13,14.35-6.74.5-10.45.2-16.74-2.5,4.72,18.2-8.99,11.69-18.99,6.74-4.37-2.41-4.05,1.06.97,10.41,3.01,20.07-17.13,7.69-24.97.99-5.69,6.78-12.29,12.61-19.79,17.5-8.22,10.7-15.63,19.04-30.39,19.22,1.37,6.96-2.52,13.81-8.25,17.66l2.64,1.83c21.05,7.39,14.12,19.23-5.75,13.79,2.85,4.43,5.83,8.82,8.92,13.18,5.05,12.1-14.67,10.29-21.16,5.94l-1.4.71c-4.1,13.44-8.06,24.58-17.38,35.54l6.14,8.44c7.79,15.58-1.85,15.61-12.27,8.18l-2.8,49.95c15.71-2.35,21.36,12.5,16.02,25.09l-10.92,11.42c12.94-.3,21.15,7.96,6.75,15.22l13.89,5.87c12.99,11.75-9.47,12-17.31,11.53,2.48.92,13.16,14.93,6.46,13.71-.52-.1-1.02-.35-1.51-.65-1.47,3.27-13.75,3.13-15.5,0,4.52,2.2,4.98,11.03,4.3,15.96l-2.38,15.56c3.49,16.73,3.6,33.27.33,49.6,14.9,5.01,12.3,10.44,3.79,20.29l7.37,2c12.89,4.42,10.63,10.28-6.76,17.58l10.37,5.81c5.72,6.07,2.12,10.55-10.78,13.43-.34,8.04-1.46,16.06-3.35,24.06,3.95,16.93,6.72,30.61-3.7,46.02,11.55,1.42,16.89,9.65,13.21,20.53l-9.14,4.63c25.4.03,19.67,16.41-.95,19.54,4.02,5.49.87,11.58-2.03,16.88l-.36,2.51c7.55,16.84,8.18,35.69,2.09,53.01l.78,1.36c18.77-2.94,10.92,7.54,3.28,15.38l12.32,2.86c26.63,10.09,1.5,18.69-12.6,19.05,7.39,7.63,14.04,16.1-.83,18.26-.34.32-.5,2.33-.03,2.89,12.95,4.72,8.05,8.55-.95,14.45l9.42,5.41c13.11,8.84,9.34,15.98-11.3,21.41l11.72,12.35c7.08,11.19,1.99,15.46-9.33,18.95l-1.49,1.73c2.62,14.3,4.06,27.63,1.94,42.48l1.56,13.26c14.33-.53,12.46,7.03,3.15,14.53,3.57,1.08,7.26,1.69,11.07,1.82,20.53,5.83.21,12.83-9.14,15.79l12.33,5.81c22.06,13.49-7.39,15.49-17.99,15.13,1.02,4.72,1.02,9.61.02,14.67l11.28,13.83c4.25,6.85,6.49,14.79,6.71,23.84,6.44.45,12.95.68,19.51.67,15.97,6.07-.87,14.22-9.38,16.95,4.21,2.22,8.66,3.98,13.36,5.26,11.9,7.66,7.42,12.27-13.45,13.83,8.44,14.53,17.56,28.8,27.35,42.82l1.98.95c5.79-9.02,10.05-5.75,12.77,9.79.57,2.33,1.65,5.06,2.92,1.89,2.54-18.72,13.12-13.51,14.45,2.26l2.76-.89c15.25-13.33,14.62-2.15,12.21,11.2l3.41-.16c17.55-6.56,25.4-3.22,23.41,16.87,20.23,4.77,40.43,10.71,60.61,17.81l6.02,1.16c6.33-7.15,12.48-7.79,18.46-1.91,7.66-13.61,11.26-9.85,19.43-.33l4-2.87c7.36-10.78,13.38-11.1,18.06-.97l6.22-9.49c5.38-4.61,8.73-1.51,10.04,9.31,14.01-3.59,29.45-1.08,41.3,7.24,2.67-2.32,4.96-5.13,6.88-8.44,3.23-4.87,9.52-7.14,11.57-.49-.23,10.05,6.57,10.16,20.4.31,5.34-2.91,10.1-1.36,9.9,5.1,2.96-8.14,11.46-9.37,14.31-.45,4.79-4.22,9.53-5.52,14.21-3.89,8.71,5.14,12.2,6.43,22.46,4.92,15.52-3.29,31.05-6.57,47.02-6.64,9.29-.04,15.4.4,23.35,5.68,1.87-7.59,7.3-8.97,16.31-4.16,5.14-16.98,13-14.89,18.94.04,1.05,1.21,2.23,1.4,3.76,1.02l9.19-11.98c9.71-9.02,12.78,3.37,12.28,11.63,10-1.36,19.69-1.29,29.09.22,3.59,3.72,7.2,5.37,10.86,4.93,4.15-3.8,10.03-8.23,13.72-1.6,1.42-.23,2.51-1.15,3.4-2.27,4.09-6.71,9.16-10.63,13.27-1.21,11.39-11.9,25.37-6.17,38.13.16,8.88,1.53,17.75,2.91,26.63,4.14l2.59,2.05c4.97-10.61,10.92-8.24,18.13-1.08,5.88-11.38,8.93-8.64,16.43-.29,1.75,1.41,5.06,1.91,7.04.78,5.6-12.36,11.12-9.8,18.67-1.54,7.06-13.32,9.16-12.73,16.94-.88,22.25-7.8,44.2-8.34,67.33-5.04l1.33-1.57c1.84-17.22,10.74-16.84,19.26-3.6,2.36,2.62,4.03-.75,4.98-10.12,6.17-18.02,14.56.94,17.74,9.25l6.66-9.6c7.85-6.5,9.41.08,8.75,7.45l.62,3.81c14.14-7.3,26.22-3.71,37.52,6.4l10.42-1.15c11.28,2.31,11.75,2.39,16.46-9.07,7.34-13.47,17.18-6.57,23.16,3.09,6.94-14.12,20.99-16.52,18.2,2.72,12.56-11.52,19.68-9.24,17.55,8.04,12.74-8.29,28.2-15.05,41.11-2.99,6.66-5.42,14.22-3.45,22.69,5.91,6.49-12.16,18.14-15.58,24.92-1.64l10.06-8.02c7.75-4.06,9.74,3.41,9.47,9.83l26.96-10.07c10.08-2.5,25.05-4.59,29.43,7.5,3.64-2.51,7.64-2.57,12-.19,3.33-12.88,10.14-13.8,20.87-7l3.42-3.24c5.41-13.95,15.77-10.65,16.54,3.29l2.59.08c8.66-4.95,13.8-2.35,19.19,4.99l5.11-.77c8.41-5.41,17.18-4.35,25.13,1.5,8.84.53,17.94-.56,27.3-3.29,7.82-1.8,14.09.42,21.19,3.35,4.95-14.82,9.93-14.22,16.58,0,5.73-5.48,9.97-5.18,13.84,1.95,11.96-8.21,27.22-10.19,41.48-9.01,6.14.51,12.45,1.26,15.55,7.18,3.19-3.38,7.38-3.73,12.57-1.05l1.09-1.82c-.45-19.42,12.81-11.24,21.5-2.43,4.53-16.57,14.69-14.64,18,1.27,5.9-7.46,12.27-6.55,13.64,3.15,12.71-3.78,25.58-3.03,37.17,3.74l1.74-1.08c9.22-10.2,15.97-14.17,21.98.88l29.58-4.54c14.55-2.08,29.6-1.82,43.27,4.12.95-6.39,7.27-8.64,11.88-3.97.74,1.58,4.03,5.68,5.59,2.9,2.8-11.86,9.51-12.24,20.15-1.14l1.63-1.8c3.39-17.22,14.95-4.86,21.47,2.73,9.86-.85,19.56-2.12,29.13-3.79l8.69.79c-7.52-15.37,2.77-16.7,13.47-8.18-1.02-18.28,8.96-11.91,17.31-3.11l2.67,1.32c11.32-8.27,23.64-14.48,36.96-18.65-12.18-11.45-11.87-16.73,5.88-18.04-12.6-15.37-6.79-20.03,17.45-13.97,6.45-11.92,14.82-22.75,25.01-30.55-17.29-2.71-13.59-9.74-1.94-17.7l-10.05-5.18c-7.5-9.28,12.26-10.03,17.9-10.08-8.12-12.87-6.27-17.52,9.04-17.4-2.65-8.87-3.96-15.09,3.02-22.57-12.1-11.93-4.7-27.98,1.97-40.79v-.8c-11.67-1.41-22.73-6.37-9.99-16.92-20.35-8.16-7.93-14.92,5.84-18.5v-1.22c-12.83-12.35-5.58-14.21,8.66-15-6.97-11.36-8.41-25.98-3.78-38.45l-3.34-.45c-12.6,1.04-10.52-3.5-4.39-11.4-12.42-4.71-10.19-10.83,6.68-18.35-9.98-10.19-12.53-18.3,4.31-21.74-16.11-15-8.83-44.15-.96-61.94-5.42-.62-7.47-4.73-6.15-12.32-19.85-.32-20.03-13.08-5.85-23.62-11.52-6.24-8.71-14.31,8.45-24.21-11.65-10.83-4.63-16.67,7.32-20.5-7.59-17.48-7.95-37.17-2.93-55.53-16.33-5.19-9.38-13.06.9-20.62-9.84-10.84-5.66-29.58.92-41.02l-2.66-.74c-19.27.25-24.16-10.78-4.07-18.39-19.06-10.07-7.02-14.79,7.08-19.96-8.03-8.75-10.37-17.76-7.02-27-12.69-5.3-10.89-11.79.92-15.94-11.41-7.65-8.33-15.43,5.11-14.84l-6.64-16.16c-.37-9.28-.47-18.56-.3-27.86-6.32-9.04-6.16-15.87-1.43-25.91-21.88-3.2-16.03-10.59-2.76-21.13l-8.09-2.24c-13.67-5.14-11.5-11.94,6.51-20.4l-8.6-8.89c-12.83-16.32,5.26-17.61,17.38-17.56-3.96-14.41-4.51-28.45-.26-43.26l-12.07-4.94c-10.1-6.06-2.26-10.45,4.22-13.83-19.39-8.11-3.9-15.38,8.31-18.45-11.99-8.37-14.57-16.78-15.38-31.07-5.89-9.51-9.62-19.47-11.17-29.86-9.34,2.63-13.45-1.92-13.21-10.9-12.16,8.46-18,5.91-15.06-9.08-.1-2.86-1.35-3.64-4.13-2.64-12.63,6.56-28.19,6.37-17.46-11.33-20.72,4.01-18.8-5.55-6.59-17.77-11.78,2.28-18.29-.8-22.07-12.7-4.18-4.96-14.33-.07-18.88,2.25-9.76,2.62-12.08-2.09-15.28-10.27l-1.7-1.6c-9.3,1.79-18.19,1.88-26.66.28-8.8-4.55-15.98-7.53-25.61-2.95-3.77.56-18.65-1.65-13.19-6.39h246v1080H0V0h357Z"/>
  <path class="cls-16" d="M360,0c2.77,1.03,4.92,3.14,6.44,6.31,8.76-9.63,13.28-5.11,19.46,4.45,2.8,2.74,5.35-.43,7.63-9.5l2.47-1.27h5l3.03,1.24c4.19,6.76,9.76,7.91,12.59-.45l2.38-.79h8c15.39,2.05,31.19,5,46.67,8.41,12.69,2.29,25.72,3.58,38.5,1.52,15.88-6.69,15.55-.46,13.71,13.41.66,11.34,16.56-12.69,16.83-15.82,2.06-2.37,4.64-1.15,6.73.7l10.98,10.4c4.97,3.45,11.01,6.26,9.54-2.51-4.09-8.74-.05-12.52,12.13-11.35,6.52-5.46,12.34-3.71,17.47,5.24l1.33-.33c5.9-9.22,9.49-9.97,19.89-7.77,13.86,3.85,28.18,3.84,42.95-.03,15.03.38,29.79-.24,44.27-1.88h5c2.44,1.25,4.7,3.18,6.77,5.8,2.6-2.25,5.35-4.19,8.23-5.8h3c1.79.55,3.32,1.93,4.58,4.14l8.42-4.14h7c3.38.89,5.93,3.6,7.63,8.12,8.99-8.9,16-11.49,20.18,2.19,1.73.36,5.56-7.85,6.02-9.7l2.17-.61h4c14.44,7.77,33.09,13.81,49.01,7.23,2.75-.69,5.34-.16,6.49,2.61-2.4,14.41,4.29,14.23,20.07-.54,3.09-1.93,6.5-2.03,7.76,1.78,3.03,19.46,7.72,17.12,13.73,1.02,1.97-3.18,5.39-2.33,7.68.05l8.28,10.33c2.66,3.05,3.37,1.92,4.4-1.73-1.71-13.53,5.01-15.33,20.15-5.38,4.94,2.27,9.29-.82,12.28-4.67,3.54-8.15,7.28-8.32,15.33-6.74,5.83-2.91,10.75-3.26,14.76-1.04-3.16,16.36,4,10.34,10.5,1.05,2.05-2.75,4.91-2.85,8.02-2.17,4.89,2.95,9.88,5.68,14.95,8.18,5.89-6.42,10.87-8.04,14.94-4.87,2.44,15.81,5.16,14.44,13.72,2.03,2.24-1.98,4.59-.89,6.51,1.02l8.19,9.51c6.24,6.64,8.53-2.27,9.28-7.76l1.77-1.75c7.32.09,14.61-.3,21.85-1.17l2.83,1.11c8.05,8.28,11.18,4.73,15.85-4.24,6.41-5.5,14.83-3.49,19.38,3.21l1.54-.57c3.09-5.48,6.96-6.8,12.94-4.66.98,1.05,7.62,6.84,8.53,5.2.02-5.42,2.21-6.69,7.38-5.96,13.29,8.23,29.71,9.76,45.3,7.29l3.94,2.27c3.28,7.07,7.15,8.19,11.63,3.35-1.56-3.85,7.85-9.03,10.71-4.79.67,11.79,4.68,12.35,12.03,1.69,2.36-2.17,5.06-2.45,6.6.6,2.41,16.51,6.02,18.67,10.81,6.51,2.24-3.53,6.42-5.85,9.1-1.65,4.9,17.56,8.46,14.79,10.68-8.32l1.58-1.51c6.44.89,12.51.68,18.18-.61,3.41-5.97,7.82-5,11.12.37,6.65,6.62,11.39.42,15.29-5.74l1.91-.54h9l2.73,1.21c4.98,4.58,10.52,8.42,16.69,3.68,3.58-3.44,7.81-5.02,12.61-3.19,4.74,8.46,8.14,5.63,13.95-.5l3.02-1.2h17c13.19,4.37,28.55,8.02,41.99,2.96l2.62,1.43c1.96,4.22,3.2,6.21,8.14,4.5,4.43-4.69,8.8-3.97,10.77,2.24,11.24-13.07,14.02-9.29,19.65,4.84,1.59,2.39,4.31,3.09,6.03.53,5.39-15.2,8.37-15.82,21.72-8.42,4.13,2.32,7.11.19,8.94-6.38,6.1-.62,12.33.53,18.7,3.43l9.73-3.01,33.46-1.07c-.84-.23-.43-.58,1.25-1.04h50l1.83,1.71c-.15,4.29,2.52,10.42,7.4,7.32,8.3-8.03,15.43-12.78,18.18,2.19,1.52,3.56,10.46-7.59,11.77-9.67l3.82-1.54h5c-.1,3.32,1.73,2.38,3.52,2.98,10.76,3.62,9.47.19,18.06-.89,9.48-1.2,14.73,6.38,24.94,6.91,6.14.31,13.77-2.94,18.94-1.98,6.78,1.26,3.23,15.38,15.35,12.29,7.18-1.83,8.38-6.34,18.47-4.1,8.33,1.85,2.65,14.7,17.23,14.87,2.14.02,12.3-2.97,8.51,2.44-1.69,2.4-11.07,11.13-8.57,14.53,3.26,3.23,13.07-1.88,15.1.91s-5.06,7.58-3.06,12.01c3.47,7.67,17.47-2.98,21.78-1.82,7.01,1.89.02,13.85,3.66,16.42,4.23,2.99,10.42-5.78,15.07-4.57.28,3.65-1.21,7.92,1.92,10.58,4,3.41,7.86-.9,10.16.83,1.43,1.07,1.55,8.49,2.23,10.79,2.11,7.18,7.67,14.15,9.42,19.58s.98,13.85,3.54,19.46c1.7,3.73,12.54,11.41,12.73,12.28.99,4.51-18.74,4.07-18.07,11.96.33,3.9,9.11,2.45,9.11,7.02,0,3.68-6.29,3.52-8.11,5.93-5.08,6.73,15.04,9.04,16,12.19-1.97,10.09-3.94,19.36-2.85,29.8.34,3.24,3.72,12.12,2.84,14.94-1.31,4.21-16.74-1.68-20.83,5.29-4.19,7.13,10.33,15,12.91,20.83-.92,3.92-36.66,12.44,1,20.53,2.93,3.45-12.55,10.29-12.07,15.46s14.28,2.8,14.98,7.16c.12.76-4.45,9.71-3.89,14.77.44,3.97,4.49,7.65,4.96,10.12,1.49,7.76-1.06,19.26.26,27.74.75,4.83,6.77,14.53,6.77,17.29,0,4.78-9.42.25-11.53,4.44-2.96,5.87,7.34,6.88,6.6,11.43-.41,2.54-22.21,4.96-.08,14.13-4.39,6.21-3.11,12.22.28,18.68,1.54,2.93,6.75,6.98,5.66,10.15-.99,2.88-20.04,5.19-16.49,11.64,1.41,2.57,10.18,3.45,9.63,8.4-.25,1.54-24.31,8.66-7.34,14.35,4.59,1.54,8.21.45,11.56,1.44,5.47,1.61.73,4.57.25,5.84-2.95,7.89-6.36,22.24-3.27,30.19.77,1.98,5.17,6,4.65,8.17-.16.65-8.66,6.83-9.97,9.05-4.33,7.32,8.03,7.13,8.98,10.18.3.96-2.67,12.07-2.91,14.89-.84,10.07-.4,22.01,2.3,31.67.85,3.03,5.81,9.3,2.27,11.9-1.53,1.13-4.1.82-6.16,1.84-14.14,6.99,1.01,13.5.5,16.44-3.49,5.83-19.74,9.83-15.43,18.65,1.19,2.43,6.57,2.56,6.56,5.48-.02,3.61-13.95,9.21-9.12,17.08,3.43,5.6,12.05,3.44,14.13,4.86,2.24,1.53-.17,8.54,1.37,10.63,1.16,1.59,5.34-.02,5.63,3.44.2,2.47-3.4,7.7-4.37,10.69-3.89,12.04-6.52,33.35-.12,44.73.93,1.66,7.7,6.64,6.42,8.07-27.28,4.12-4.4,16.31-5.08,20.36-1.78,4.11-14.91,6.3-14.95,11.15-.03,3.91,7.18,3.51,7.95,6.15,1.12,3.9-5.76,6.36-4.91,10.34,19.57-1.09,11.02,1.96,10.12,13.63-.41,5.33.86,14.04,2.59,19.17.64,1.89,4.43,7.99,4.29,8.69-.48,2.58-13.88,1.22-15.55,3.48-2.94,3.98,8.97,7.56,6.08,13.06-1.63,3.11-14.36,2.52-16.46,8.63.05,4.22,10.3,5.94,10.9,7.93,1.19,3.93-8.57,6.44-5.05,11s15.72,4.15,16.08,5.96c-4.99,11.17-11.66,20.51-8.57,33.54.98,4.14,5.39,5.98,5.62,8.48.29,3.07-4.35,5.47-5,8.99-1.18,6.29,2.24,10.87,2.01,13.94-.4,5.3-11.31-.06-13.59,4.52s7.3,12.09,3.56,14.53c-1.47.96-10.56.46-14.26,1.74-13.36,4.63,6.31,8.29,7.21,11.3,1.54,5.11-17.53,9.32-6.69,14.64,3.55,1.74,11.28.48,8.48,5.58-.33.61-8.64,6.46-10.74,8.74-5.92,6.42-9.61,14.39-14.68,21.39-4.89,2.89-20.46-6.04-22.9-.89s8.66,12.76,6.55,14.97c-3.03.85-15.09,1.23-15.03,4.48.08,4.25,11.19,10.27,8.59,13.58-.72.92-18.36,6.55-21.77,8.23s-15.37,10.6-16.35,10.75c-5.18.76-10.58-10.1-15.99-10.05-4.85.04-.48,10.98-3.98,12.01-2.8.82-16.64-13.71-14.43.44.39,2.49,3.18,4.93,2.96,6.04-.65,3.18-9.06.62-11.24.78-2.33.17-4.97,1.41-7.38,1.63-7.28.67-14.68.59-21.87,2.13-3.93-.37-7.26-9.44-12.26-10.77-8.2-2.18-5.22,3.86-7.8,7.71-4.85,7.23-9.77-6.05-14.95-6.05-7.16,0-3.74,9.37-9.06,10.13s-4.61-6.09-9.94-6.12c-5.61-.03-3.86,6.49-6.06,7.09-24.3-12.01-50.6-2.63-75.89.04-4.74-23.37-16.4-.15-21.03-.05-1.83.04-8.39-4.03-11.27-4.73-4.03-.99-11.63-1.61-15.75-1.23-2.31.21-11.43,3.15-12.51,1.99-.34-.37.57-8.03-4.5-8.04-2.2,0-5.37,5.32-8,6.01-2.9-4.6-1.55-11.86-7.99-14.01-4.97,0-6.88,11.72-8.02,12.03-3.77,1-11.35-12.24-17.45-9.51-4.86,2.17-1.93,8.2-3.53,11.51-2.28,4.71-7.21-.32-9.97-.04-2.22.23-3.11,3.08-5.03,3.09-2.5.01-2.73-2.95-4.24-4.08-7.04-5.31-31.68-3.15-40.25-.44-3.25,1.03-11.83,6.54-12.54,6.54-2.72,0-3.53-5.95-6.96-6.04-3.22-.09-4.84,4.45-7.96,3.96-1.48-.44-4.7-10.75-8.05-11.04-4.79-.05-2.47,9.55-7.23,10.93-2.24.65-7.3-3.06-11.05-3.61-11.73-1.72-30.72,6.52-37.82,3.81-3.66-1.4-5.78-4.3-11-4.99-9.14-1.2-8.49,1.78-14.38,3.44-9.09,2.56-6.89-2.62-11.51-5.55-7.29-4.63-9.56,3.08-15.9.89-3.28-1.13-.2-11.96-7.13-11.96-4.64,0-4.87,5.1-7.06,8.03-6.24,8.34-7.3,1.53-13.16.3-12.72-2.69-6.74,10.26-12.82,10.8-2.4.21-4.08-1.95-6.04-2.06-2.47-.14-4.18,2.89-6.79,1.97-1.48-.52-1.85-3.91-3.54-5.52-5.4-5.15-16.58-3.69-23.28-2.12-4.58,1.07-29.37,12.07-30.79,10.71,1.37-24.26-13.56-1.94-17.51-1.95-2.79,0-3.59-9.12-10.98-9.16-8.82-.05-11.15,11.15-14,11.16-5.23-3.18-8.57-9.05-15.28-9.89-4.84-.61-5.39,4.15-7.6,3.76-.88-.16-4.41-4.64-7.6-5.46-2.24-.58-11.15-1.36-13.56-1.3-4.86.12-19.62,11.62-21.47,9.84-.61-3.77,1.44-12.69-1.42-15.1-3.94-3.32-12.72,7.78-15.07,7.09-2.79-.82.21-7.2-.72-10.28-1.01-3.36-5.25-5.74-8.33-2.74-2.62,2.55-6.49,12.05-9.54,9.4-2.25-1.95-4.69-6.87-8.01-8.78-11.96-6.88-14.13,15.35-19.41,16.44-3.47.71-7.42-1.12-11.01-1.12-3.87,0-7.95,2.05-11.8.88-1.44-.43-7.07-6.14-10.39-7.61-4.83-2.14-9.41-2.95-14.75-2.12-10.81,1.68-14.42,11.17-13.56-10.07-7.41-2.39-9.21,13.5-14.47,12-1.18-.34-6.06-15.94-10.17-16.91-7.35,1.38-3.58,18.35-9.91,18.97-4.6.45-10.81-18.29-16.86-7.96-2.19,3.73-.55,11.06-5.08,11.91-4.98.94-14.42-1.76-19.96-2.04-9.9-.5-21.12.2-30.79,2.29-4.47.97-12.87,5.35-17.2,4.78-4.58-.6-4.54-9.07-8.04-9.08-4.09-.01-4.19,8.92-8.22,9.95-4.91,1.25-7.21-13.31-14.84-3.93-2.64,3.24-1.15,6.13-6.95,6.14-7.38.02-10.36-8.52-13.14-9.03-3.01-.54-4.21,7.1-7.05,7.83-3.66.94-5.08-6.29-10.81-6-4.73.23-3.57,3.34-5.47,5.63-3.22,3.89-4.66-.98-7.55-1.52-6.17-1.17-15.18-.46-21.75-2.25-7.14-1.94-13.22-7.04-22.19-7.8-11.8-1-10.57,2.57-19.02,8.04-6.05-15.84-8.1-.34-14.24,1.81-4.17,1.46-3.07-2.05-4.9-2.7-4.7-1.67-7.22,3.82-10.1,4.69-6.72,2.03-9.04-4.87-13.83-5.75-8.18-1.5-20.02.75-28.45.96-.04-3.58.09-8.95-1.26-12.24-4.44-10.85-14.67,11.2-17.44,12.05-9.57,2.95-7.96-13.5-14.76-12.86-4.95.46-5.5,10.34-7.52,11.6-3.15,1.96-6.73-3.18-11.28-2.37-5.28.94-2.53,6.6-6.27,6.91-1.88.16-7.88-4.5-11.04-5.02-9.2-1.52-24.34-.07-33.8,1.08-10.06,1.23-25.96,6.16-35.07,5.79-4.8-.2-13.45-7.05-17.1-6.85-3.16.18-11.38,7.08-12.48,5.92.39-3.54-.19-7.09-4.5-7.1-5.48-.01-3.97,7.77-9.5,8.09-.19-2.54,1.23-7.78-2.52-8.05-5.92-.43-20.68,14.61-25.93,7-2.17-3.15-.26-9.73-4.07-10.02-5.53-.43-9.57,13.14-13.98,13.12-1.66,0-2.58-2.16-4.24-2.79-6.59-2.51-13.56-5.47-20.87-6.13s-11.48,1.46-18.33,1.82c-2.6-26.37-9.79-1.13-13.69-.06-3.67,1.01-4.97-8.46-8.71-7.81-2.54.44-11.1,14.11-15.68,11.44-1.49-.87-5.26-8.55-8.46-8.55-3.8,0-6.31,8.33-8.16,8.94-3.79,1.25-4.69-2.98-7.05-3.71-6.88-2.13-7.94,5.44-11.81,5.81-3.31.31-13.78-3.16-17.7-4.29-10.04-2.9-19.71-7.44-29.77-10.23-4.76-1.32-17.1-2.56-20.01-3.99-6.3-3.09,5.11-20.46-10.5-20.48-4.62,0-15.18,5.66-17.59,2.57-2.69-3.45,4.08-15.23-.44-16.58-3.19-.95-9.07,8.47-13.84,6.92-2.92-.95-1.34-16.1-8.02-13.83-4.05,1.37-1.4,15.05-8,12.82-2.95-1-4.18-15.78-6.57-17.45-3.65-2.56-2.72,1.57-3.96,3.1-3.08,3.81-6.99-.41-9.08-3.06-7.59-9.63-13.66-23.63-20.19-33.81-1.92-2.99-6.33-4.63-4.39-8.76,1.78-2.46,29.68-.48,15.92-9.77-3.2-2.16-20.91-5.2-15.33-9.64,2.32-1.85,16.19-4.8,14.89-9.83-1.91-7.38-21.73-.88-25.39-4.7-2.29-2.39-1.19-12.57-3.15-17.85-2.43-6.55-14.84-18.02-15.35-20.66-.66-3.43.88-6.02.99-8.97.08-2.23-2.45-6.41-.06-8.06,3.8-.87,26.1.69,24.98-5.8-1.71-5.65-20.22-10-20.92-13.16-.6-2.74,8.72-4.25,10.86-5.12,1.46-.59,8.12-3.56,8.12-4.87-4.7-6.54-14.89-2.38-20.98-7.01-.52-2.27,8.01-7.17,8.03-9.98.03-5.91-8.01-1.1-10.11-3.92-.74-.99-1.8-10.05-1.91-12.1-.46-8.84,1.67-17.28,1.03-26.02-.32-4.31-3.74-16.82-2.91-19.76,1.31-4.68,11.31-3.91,13.35-8.73,4.31-10.16-15.86-19.77-14.45-24.41,4.18-4.8,19.09-3.36,19.08-11.07,0-6.66-16.3-11.66-17.05-14.08-1.16-3.73,8.24-5.91,8.9-8.99.88-4.11-10.8-1.22-7.83-9.8.97-2.81,8.83-1.17,8.89-5.08.08-4.72-10.82-12.39-9.02-14.53,4.04-.55,26.12-1.5,24.93-8.37-1.31-7.58-23.03-8.31-24.46-10.61-2.1-3.37,16.59-13.24,5.99-15.03-2.55-.43-6.08,1.2-7.44.55-4.58-2.21.12-9.18.71-12.32,2.32-12.3,1.78-23-1.45-35.01-.82-3.06-3.12-5.56-3.34-8.73-.39-5.77,5.45-8,4.03-15.94-.27-1.5-2.04-2.88-1.88-3.92.55-3.65,17.96-2.84,18.01-11.13.05-7.59-14.46-4.81-16.04-6.57-3.48-3.86,6.91-5.76,8.92-7.45s-.74-11.59-1.89-13.08c-2.42-3.15-9.36-2.56-12.05-5.01-.65-2.17,6.34-12.76,6.92-15.94,2.39-12.99-1.22-17.91-2.9-29.02-1.29-8.5,5.03-17.56,3.07-26.81.98-2.91,13.9-3.13,13.9-8.14,0-4.45-14.81-8-14.04-10.98.4-1.54,14.66-6.64,15.95-10.11.85-3.91-12.9-6.61-15.53-7.32-2.37-6.16,7.47-7.44,6.61-13.51-.8-5.6-10-4.56-10.88-8.25,1.06-7.22,2.91-15.54,2.91-22.82,0-8.49-3.19-18.69-3.15-27,.03-6.27,2.97-14.55,2.71-20.84-.16-3.9-2.31-6.94-2.62-10.66h15.5c.89,0,1.72-1.97,1.35-3.33-.65-2.4-11.08-9.08-8.85-11.66,3.34-.39,23.26,1.34,21.96-4.44-1.16-5.19-16.99-7.93-17.93-10.1-1.34-3.07,2.29-2.59,3.92-4.01,10.77-9.38-4.57-9.56-11.94-10.47-1.48-1.41,11.32-12.12,12.41-14.08,3.53-6.3,1.53-19.71-6.17-21.67-2.88-.74-9.29.94-10.18-1.89l2.89-50.84c1.21-7.38,12.65,8.76,14.92,1.83s-9.32-14.82-8.94-18.79c.1-1.09,8.95-11.81,10.45-14.66,2.83-5.4,5.08-18.38,7.53-21.46,2.9-3.64,6.46.71,9.81,1.34,2.46.47,9.24.72,11.27-.27,7.81-3.8-9.96-16.03-8-21.5,1.37-1.38,24.57,5.44,17.54-4.05-3.47-4.68-7.57-4.24-11.44-6.55-7.22-4.32.95-5.66,3.13-9.69.26-.48,2.51-6.17,2.58-6.52.49-2.45-1.72-4.57.61-6.27s5.75-.56,8.63-1.39c14.13-4.08,13.98-10.94,22.44-18.56,2.97-2.68,7.18-4.73,10.43-7.57,2.99-2.61,6.83-7.36,9.63-10.4,4.94,4.6,25.78,19.97,23.43,3.58-.58-4.01-8.01-13.78-2.42-14.62,6.74-1.01,27.14,17.69,19.47-5.95,4.44-1.39,7.01,1.47,10.16,2.32,6.56,1.76,36.61-4.71,44.37-7.29,4.39-1.46,13.51-7.14,16.99-7.12,4.06.02,5.29,5.14,7.98,5.13,2.15,0,3.43-4.19,6.88-2.97,1.3.46,3.89,8.52,8.15,8.96,5.44.57,11.87-10.32,16.75-8.91s3.18,15.62,10.16,14.92c1.47-.15,5.77-4.26,6.58-5.52,3.93-6.12.24-12.45,9.38-11.45,10.15,1.11,13.66,4.18,25.86,1.7,2.94-.6,11.29-4.91,12.18-4.83,3.07.29,4.04,5.19,8.05,5.16,2.98-.03,8.84-3.43,8.5-7.1h3Z"/>
  <path class="cls-41" d="M1151,0c9.57,4.6,23.3,7.33,35.18,7.01,5.59-3.87,19.36-.24,19.74,6.58,1.69-1.11,3.05-.98,4.09.4-8.32,11.65-12.9-4.11-15.71-4.87-9.38,1.3-19.22,1.42-28.52-.4-5.19-1.02-15.79-6.8-18.29-6.8-5.6,0-1.98,5.89-5.11,6.97-5.39,1.86-9.45-6.98-13.87-7-4.95-.02-5.08,7.59-9.95,7.15-4.04-.37-4.1-6.95-9-7.09-9.67-.29-8.23,4.32-12.59,9.52-7.55,9.01-11.95-1.9-16.52-2.5-2.06-.27-4.55,1.03-6.91,1.08-2.21.04-13.98-.51-14.5,0-.31.3-.67,5.78-2.2,8.3-7.52,12.43-15.76-9.54-21.37-10.39-1.51-.23-6.83,9.67-9.51,10.58-8,1.53-6.86-7.72-8.11-11.88-1.89-6.25-10.63,5.26-13.33,5.34-3.11.09-15.52-9.28-17.97-9.05-4.85.46-8.52,12.99-14.99,12.09-6.81-.95-1.25-10.72-2.56-12.03-4.74-1.25-8.49,2.53-12.61,2.94-3.19.32-6.6-1.32-8.66-.79-2.61.67-4.01,5.61-6.18,7.9-10.6,11.19-16.41.88-25.52-1.58-9.58-2.59-3.44,5.55-6.3,11.77-5.26,11.44-13.33-13.17-19.13-11.17-1.79.62-4.6,15.57-11.05,14.99s-5.72-16.19-8.17-16.98c-5.37-1.74-18.52,17.42-24.98,12.04-4.11-3.43.58-11.78-3.05-13-2.83-.95-8.63,2.55-12.81,2.93-8.99.8-24.54-2.47-32.77-6.31-1.72-.8-6.74-3.41-6.77-5.73h360Z"/>
  <path class="cls-34" d="M708,0c-.97,2.24-4.53,2.63-6.62,2.89-10.06,1.22-20.91-.8-30.89.11-16,1.45-25.16,5.93-42.93,2.94-4.25-.72-12.97-4.6-17.02-3.95s-5.33,10.13-11.07,9.99c-4.13-.1-6-9.69-9.88-8.98-2.43.45-4.58,3.21-7.33,3.77-3.97.81-8.35-.85-11.84,1.17-1.29,1.76,4.49,10.71.1,15.07-2.73,2.71-8.55-.94-11.28-2.77-3.31-2.22-11.92-12.98-14.63-12.19-3.08,5.14-9.73,20.68-17.08,19.97-6.5-.63-2.54-13.01-2.59-16.62-.07-5.21-9.64.04-12.53.52-26.76,4.37-55.08-6-80.93-9.9-1.78-.27-3.77.46-4.49-2.02h281Z"/>
  <path class="cls-13" d="M1318,0c.02,3.11-7.03,10.68-9.55,11.02-8.1,1.09-11.33-6.91-12.1-7.08-3.86-.86-3.73,2.1-5.4,3.5-4.86,4.05-17.13-.39-19.01.97-2.22,3.79-1.37,20.32-5.56,21.53-6.14,1.08-7.7-13.21-9.94-13.91-5.45-.52-7.28,11.98-11.93,12-5.79.03-5.43-16.42-8.01-17.03-3.58.73-9.06,10.01-11.98,10.03-4.48.04-5.07-10.56-5.53-11.01-2.47-2.38-7.13,2.96-8.97,3.97-1.26.69-5.98,2.75-7,1.99l.9-4.9c-4.46-1.81-8.57-4.07-13.62-3.82-1.53.07-2.53,1.6-3.82,1.68-9.24.57-24.71-1.84-33.02-5.94-1.39-.69-2.87-1.02-2.44-3.01h167Z"/>
  <path class="cls-13" d="M1576,0c.57,3.16-1.56,1.7-3.43,2.02-10.98,1.89-21.08.69-30.98,2.07-3.55.5-6.4,3.08-10.11,3.03-4.11-.05-13.27-5.6-15.79-4.98-3.35.83-2.7,8.42-7.2,8.86-5.61.55-14.32-6.82-17.78-5.87-4.24,1.18-4.23,15.02-11.21,14.97s-8.4-14.1-11.12-15.03c-4.61-1.58-8.6,7.99-11.88,7.98-2.94,0-2.05-4.28-4.11-4.99-3.24-1.12-4.19,2.14-6.09,2.73-9.47,2.95-8.79-4.99-10.92-5.73s-4.34,1.64-6.83,1.99c-8.71,1.24-23.78-.68-31.99-4.11-1.69-.71-2.88-.94-3.56-2.94h183Z"/>
  <path class="cls-11" d="M1669,0c-2.85,2.99-12.56,18.57-17.09,12.59-1.28-1.69-1.46-9.65-5.39-9.65-2.28,0-8.63,7.44-11.56,8.52-6.6,2.43-9.93-5.91-8.96-11.46h43Z"/>
  <path class="cls-21" d="M1376,0c-1.18,2.95-7.84,8.96-10.5,9.1-6.36.35-6.22-6.84-10.05-7.16-4.58-.38-8.57,8.91-17.74,6.84-2.31-.52-10.47-5.77-10.71-8.79h49Z"/>
  <path class="cls-18" d="M396,0c-8.67,29.7-13.16,4.12-20.7,2.11-4.13-1.1-4.29,7.13-9.64,5.95-.48-.11-5.49-6.63-5.66-8.06h36Z"/>
  <path class="cls-42" d="M787,0c-.25,2.55-3.92,9.64-5.51,10.98-6.3,5.33-6.1-7.82-9.12-8.88-5.3-1.86-10.22,7.9-13.88,7.95-2.67.03-4.53-8.3-7.49-10.05h36Z"/>
  <path class="cls-7" d="M419,0c-4.05,13.05-12.6,10.33-18,0h18Z"/>
  <path class="cls-37" d="M728,0c.36,2.44-7.26,8.06-8.51,8.06-1.53,0-6.14-6.07-6.49-8.06h15Z"/>
  <path class="cls-37" d="M744,0c.19,2.37-7.48,6.18-8.48,6.08-2.26-.22-4.02-3.97-4.52-6.08h13Z"/>
  <path class="cls-19" d="M1609,31l.37,2.28c32.42,2.94,64.88,6.76,97.37,11.43,14.58,4.31,28.84,9.19,42.75,14.64.26-1.23-20.35-9.89-22.86-10.55-38.14-9.9-74.25-13.65-113.41-16.31l-2.23-1.49c-1.47-1.51-.92-2.05,1-1,.48-2.18,2.66-2.93,6.52-2.23,13.49,1.68,26.95,2.66,40.38,2.92-.09-1.96.31-3.33,1.87-4.61,4.4-3.59,44.05,1.66,50.41,4.25,2.48,2.91,5.75,4,9.83,3.27,7.59,3.9,15.07,5.43,22.44,4.6,14.22,5.82,25.77,14.42,36.14,25.7,4.23,5.07,9.56,6.07,15.98,3,1.08.16,13.34,7.43,14.01,8.93-.79,6.25-1.02,8.83,2.02,14.57,7.79,12.21,15.37,24.54,22.73,37,2.82,5.77,9.82,23.9.62,25.33,1.17,9.88,2.5,19.75,3.97,29.62,3.11-1.25,8.57-.26,5.09,3.15.78.21,1.95.53,2,1.12.18,2.12.07,18.61-.67,19.23-.37.31-.84.5-1.33.65,2.27,1.15.87,7.5.27,10.13-8.03,20.02-12.4,38.57-8.22,60.32,10.45,29.25,18.33,57.74,10.97,89.15-3.93,21.8.32,41.07,7.11,61.59.74,3.29,1.46,6.89.34,10.1,3.68.52,4.09,3.24,3.57,6.55,1.99-.82,4.47-.32,4.52,1.96-13.26,20.25-10.8,46.51-7.55,69.4l-2.91,12.76c2.84,4.59,2.09,7.07-2.25,7.45-.75,1.15-1.47,4.15-.5,5.13,4.91,1.22,5.79,5.13,2.63,11.73-.75,11.91-2.05,23.7-3.89,35.38l-2,1.98c6.13,5.26,4.69,17.5-4.61,16.13-6.26,1.92-3.88,25.76-2.09,31.01,4.75,16.67,8.52,33.52,11.3,50.54,2.73,23.39-3.06,44.46-9.21,66.22.5,8.27.21,16.41-.89,24.43,1.84,2.17,2.66,5.03,2.49,8.56,2.45,5.79,2.95,11.19,1.5,16.2,4.18,4.77,1.75,9.04-4.29,7.04,2.14,2.4,2.9,4.77,2.29,7.1-5.93,7.54-6.47,16.4-5.74,25.71,2.28,22.96,4.34,46.35,2.63,69.4-.8,10.83-2.34,28.46-11.27,34.98.99,15.78-9.25,30.14-18.34,41.7l-1.85,2.44c-8.94-.7-12.75,2-17,10.34-2.65,2.89-8.24,8.31-12,7.08l.51-3.13c16.85-16.55,27.55-38.49,34.38-60.88,1.54-5.05,3.42-12.57-1.18-4.29-13.16,45.91-40.43,79.39-90.26,88.34-7.6,3.13,2.28,2.05,5.96,1.23,16.92-3.79,34.1-12.28,48.31-22l2.28.73c.83,1.59.35,3.23-1.44,4.93,9.66,4.2-6.83,21.01-14.79,18.27-6.51-5.49-20.07-4.59-20.46,5.46,4.72,2.52,8.42,9.92,3.44,13.2-.64.42-11.29.23-12.17-1.68-13.35-.98-26.8-1.02-40.35-.1-5.1-2.62-15.28-6.61-18.77-.46-1.29.54-13.11.89-15.46.89-7.9-.01-29.94-.78-35.9-5.21-1.71-5.32-6.41-4.58-14.1,2.24-5.38,3.69-9.97,2.44-14.17-2.04-1.92-.83-14.61,2.33-15.19,2.86-4.19,10.8-26.53,7.64-36.27,5.88-16.89-5.48-34.08-8.86-51.57-10.11-2.37-.58-3.68-1.55-2.83-4.12,2.88-1.4,5.74-1.83,8.56-1.28,2.42,2.91,7.46,3.87,10.19,1.08,4.5-.2,12.92.78,15.6,3.81,24,2.73,48.53,2.14,71.65-3.61l-1.21-1.48c-16.77.6-33.63,1.2-50.57,1.81l-2.22-1.32c-14.13-1.14-28.24-1.97-42.33-2.51-1.56,2.48-4.04,1.84-7.42-1.92-7.35-4.05-31.92-5.86-41.13-5.12-5.45.44-7.99.82-3.12,5.56,7.8.6,15.13,1.6,22,3-.73,1.77-2.44,2.44-5.11,1.99,1.63,2.44,1.06,3.51-.33,5.75-2.8,4.51-39.94,5.63-46.79,2.86-30.42.46-61,1.59-91.76,3.4-21.58.54-41.85.3-62.47-2.19-10.16,1.09-23.61-3.96-32.22-9.65l-3.87.98c-3.35,3.31-7.69,4.72-8.8-1.23-3.45,1.32-7.16,1.93-11.11,1.84.9,4.57-3.83,6.55-7.75,7.26-15.64.22-31.29,1.06-47.1,4.39-6.72,1.09-14.51-.05-8.21-7.06-12.7.34-25.32.54-37.86.58-10.1,4-20.09,4.83-29.99,2.48-1.95-4.3-3.87-4.68-5.75-1.13-4.71,2.15-28.72-2.55-19.42-9.16l-9.86-3.75-.59-2.36c.53-1.04,1.87-1.04,4,0,.96-.29,1.93-.54,2.92-.66s1.88-.19,2.76-.02c37.37,6.78,62.32,10.85,100.8,6.54,8.18.19,12.35-1.43,12.52-4.86-28.29,2.5-53.83,3.36-83.1-.49l-49.03-8.09c-8.75,3.08,1.82,6.19,7.67,6.55l.46,1.04c-4.03,4.63-15.65.44-17.13-5.66-4.25,5.55-5.68,5.46-11.37,1.66-1.71,3.33-13.88,3.06-16,0,6.73,4.34,2,7.83-3.48,10.36-6.27,1.97-11.8,4.93-16.61,8.89-18.45-1.04-37.09-1.82-55.9-2.34l-8.51-2.91-1.35.76c-11.11-6.7-21.3-10.89-34.63-6.53,1.12,3.93-.85,4.86-4.43,5.48-30.32,1.3-60.08,4.78-89.26,10.43-17.52.26-35.04.51-52.57.72-24.36,4.95-47.6,9.13-72.35,3.26-10.01-.73-18.72-1.03-27.53,4.45-2.19-.89-4.2-2.21-6.03-3.98-4.03-1.69-35.41-3.55-38.48-1.48-4.22,9.53-8.55,9-10.11-1.36-3.89-4.68-8.53-6.96-14.09-3.99-4.03-5.01-6.81-4.39-12.63-2.07-3.27-1.32-5.63-.36-7.08,2.88-5.07-.31-9.3,0-12.51,4.2-3.95-.74-5.44-1-9.17,1.02-6.56-2.41-11.06-2.18-17.22.88-3.51.91-7.52,1.17-8.8-2.92-1.47.78-3.05,1.82-4.74,3.11-7.99-3.29-12.07-4.3-20.67-3.28-16.29,5.18-28.89,2.73-44.54-.54l-7.98,1.98c6.23,10.96-8.69,9.54-11.32,1.58-2.43.88-4.73-.03-6.91-2.75l-18.01.11c-6.08-1.34-12-1.47-17.75-.39-7.03,4.69-11.02,6.12-17.39-.23-14.83-3.15-29.23-2.92-43.21.67-10.5-7.38-23.72-9.11-35.45-3.97-24.91,2.28-77.98-1.41-98.59-15.18-5.24-7.19-11.73-11.65-19.48-13.37-3.99,2.57-7.5,4.05-10.03-1.16.02-4.88-9.39-17.47-8.46-6.51l-1.24,3.21c-1.76,1.81-7.28,10.61-10,8-.92-.88,1.97-8.72-2.05-11.46-.51-.35-11.44-3.92-11.94-3.55-.36.27-.77,6.7-3.5,6-2-.51-4.7-14.49-9.88-12.94-1.64.49-2.7,5.42-5.04,4.9-9.13-9.97-14.94-22.27-20.6-34.44,5.47-4.51,14.43.54,16.77-8.27s-9.69-9.54-14.75-13.75c3.75-5.59,15.71-8.44,8.62-16.14s-21.7-1.9-24.74-5.76c-.91-1.15-1.65-10.3-3.03-13.97-1.25-3.32-4.4-8.53-6.44-11.56-4.3-6.42-9.66-7.39-8.48-16.62.77-6.04,4.64-2.53,8.38-2.82,6.33-.49,20-2.48,17.24-11.65-1.51-5.04-12.34-11.53-12.58-12.49-.8-3.24,9.71-1.88,10.1-8.99.55-10.08-17.06-8.28-17.08-11,3.65-2.97,6.43-10.61,1.54-13.56-5.55-3.35-8.07.85-8.35-10.44-.21-8.37,1.63-18.12.78-26.99-.37-3.93-4.4-13.43-2.01-16.02.94-1.02,4.33-1.82,5.95-3.05,13.76-10.48,2.57-19.93-4.93-29.92,3.36-2.32,6.4-1.27,10.33-3.68,15.02-9.23.56-18.84-8.28-25.45-.3-1.74,3.87-4.16,4.82-6.01s2.32-14.23,2.18-16.84c-.14-2.46-2.48-6.38-1.99-7.92.65-2.08,4.18-1.4,5.95-2.11,11.1-4.39,15.66-13.2,4.99-21.51l-7.58-2.56c-3.5-3.33.49-7.53,5.12-6.8,2.46-8.99,3.76-18.18,3.9-27.59,2.22-2.39,4.54-4.76,6.96-7.12-4.91-1.63-5.69-2.26-7.6-6.94-3.11-7.6-2.88-23.22-1.86-31.5l-2.84-12.12c3.12-4.36,3.01-9.1.12-13.54l.17-4.31c8.71-18.47,13.15-37.29,10.95-58.35-2.51-25.64-4.9-50.79-2.82-76.34-3.34-34.06-3.48-68.49.56-102.65,1.51-2.47,2.07-5.18,1.67-8.13,4.93-1.87,7.16-4.16,6.98-9.81,4.21-.43,4.74-3.18,1.59-8.27l-8.72-17.35c-.53-8.25-1.7-16.36-3.52-24.31-7.27-.47-7.57-8.07-5.22-14.11.23-11.98.11-23.93-.39-35.85l1.96-8.26c-1.1-9.43,1.46-12.16,8.87-5.12,8.61-1.68,9.39,3.04,8.31,10.14.94,2.66,1.28.27,1.39-1.46.83-13.27,2.62-25.75,6.95-38.55-11.1.43-2.6-10.04,1.46-14.19l1.59-2.9c-.18-2.06.28-6.71,2-8-3.62-8.21,10.78-10.27,10.54-.44l2.75-2.18c9.3-10.87,18.84-21.36,28.61-31.48-1.92-4.87,1.59-7.3,5.34-9.81,15.48-7.49,31.21-14.44,47.18-20.86,7.92-4.2,14.47-7.29,22.82-9.07.22-.05-2.83,1.16-2.79-2.36.09-7.86,42.14-11.79,49.65-9.61,42.27,6.51,82.54,3.02,124.43-2.23,6.66-.97,12.93-.69,18.82.84,17.66-4.27,33.04-6.69,51.35-3.16,24.45,7.83,48.56,12.84,74.3,10.94,16.6,4.94,30.09,6.68,47.7,4.51,21.38-2.63,43.68-6.73,64.01-12.94,10.99-8.16,24.32-9.07,38.36-8.95,51.35,4.12,102.63,13.92,153.08,25.38,36.25,7.72,71.85,11.42,107.44-.98,20.67-6.14,37.7-8.68,59.32-8.04,14.84.44,30.24,1.43,44.67,4.31,35.77,5.93,70.28.22,105.47-5.77,26.78-3.05,50.75-1.05,77.67,2.18,8.47-.88,17.02-1.05,25.65-.51,1.04.83,2.09,1.5,3.18,1.58,21.79,1.6,41.3-1.8,61.88-6.03,28.62-.28,56.95-2.28,85.47-5.04l21.9-.11c28.16,1.83,56.55,2.11,84.5.82,14.59-3.57,28.76-4.39,43.85-4.78,23.18-.59,46.79-.81,69.15-.36,1.79.51,4.31,2.26,4.67,4.15Z"/>
  <path class="cls-36" d="M305,12c8.72,1.13,17.57,1.37,26.27-.23,2.64-.49,5.94-3.05,8.2-2.81,1.9.2,2.64,2.21,4.29,2.78,2.46.85,7.94,1.81,10.23.74,1.41-.66,2.57-3.73,4.38-3.42,1.56.27,3.3,4.55,6.19,4.96,4.04.58,7.46-4.02,10.77-2.93.9.3,4.02,5.26,7.15,6.92,12.91,6.87,13.82-7,17.16-7.97,2.64-.77,11.41,9.39,19.76.85,1.13-1.15,2.41-4.48,2.79-4.71,1.84-1.09,31.87,6.1,37.04,7.07,13.13,2.47,27.69,5.05,41.31,4.77,2.79-.06,16.83-2.66,17.45-2.04-1.63,19.93,11.02,23.2,22.84,8.34,1.69-2.12,2.04-6.05,4.68-6.41,4.45-.61,9.09,7.19,13.91,9.14,7.7,3.12,16.42,3.17,19-6.15.7-2.53.19-6.81,1-8,.41-.6,7.16-1.9,8.15-1.84,2.55.15,6.41,6.15,12.95,6.02,8.13-.17,10.63-8.43,13.11-8.91,1.17-.22,14.5,3.51,17.88,3.79,15.13,1.26,25.23-2.82,39-3.97,9.66-.8,21.93,1.33,31.04.04,2.41-.34,3.88-2.13,5.94-2.16,4.63-.07,5.45,6.73,11.96,7.18,9.25.64,6.92-5.53,9.06-6.07,1.71-.44,1.85,1.48,2.49,2q-1.89,1.93,0,0c7.13,5.77,5,1.41,10.94-1.55,7.39-3.68,5.25-.29,8.05,3.05,9.16,10.94,15.89-.48,19.37.55,1.93.57,2.77,6.28,8.09,7,4.57.62,7.48-.26,9.98-4.13,1.12-1.73-.06-4.72,3.08-4.99,2.14-.18,11.29,4.62,14.52,5.54,2.95.84,7.76,1.93,10.75,2.25,4.46.48,20.37-.64,22.22,1.28q-2.09,2.77,0,0c1.86,1.92.4,5.97,5.08,8.42,11.61,6.06,17.25-6.99,23.4-6.5,2.97.24,2.11,3.41,3.49,5.61,4.64,7.4,12.27,9.42,18.58,2.52,1.46-1.59,2.89-6.49,4.93-6.04,2.55.56,7.13,14.38,18.44,8.41,5.38-2.85,3.48-10,5.6-10.42.47-.09,6.75,2.61,9.09,2.89,17.92,2.11,20.01-13.27,33.9-11.99,2.66.25,2.94,6.99,6.51,8.59,5.07,2.28,11.52-.07,15.46-3.51,3.08-2.68,4.08-7.45,7.52-4.98-.4,1.22.27,2.55,2,4,4.99,1.86,9.71,3.23,15.18,1.8l.82,1.2c3.83-.53,5.29,8.97.3,9.52,1.71,3.4,6.08,6.63,9.98,6.4-9.05-2.64-7.64-7.46.72-8.93,1.05-1.44,6.43-.77,8.26.16,2.45-1.44,4.15-1.95,5.53,1.1,6.25,1.15,7.49,6.15,1.53,8.81,5.31,7.68,6.96,3.64,7.48-4.04.48-2.15,1.68-3.06,3.89-2.83,8.21,1.83,14.59.47,18.31-7.2,1.88.41,4.88-.61,6-3,.15-.68.32-1.22.57-1.26,9.65-1.57,17.93,4.58,20.52,13.65,4.55,2.61,6.81,5.63,6.77,9.07l11.43-1.51c-1.03-5.3,1.95-6,8.94-2.1,6.62-.31,13.29-1.63,20-3.95,18.09-.92,36.14.18,54.15,3.32-1.04-5.49,2.41-6.24,7.35-6.31,1.79-3.06,4.91-4.76,9.36-5.12,3.24-5.19,5.88-5.21,8.19.54,2.62,2.62,6.45,2,9.7.86l1,.81c-.63,2.97-3.28,4.29-7.94,3.98-1.02,2.43-2.1,4.55-5,3.69,14.36,9.03-6.55,8.52-13.95,7.12-39.59-7.18-77.45-1.4-116.65,5.32-20.5,2.37-42.07,1.67-61.92-2.41l-1.58-3.3c-2.42,3.43-5.87,3.14-7.97-.36l-3.67,2.11c-20.1-1.16-40.93-2.03-61.65-1.23-11.71,4.98-23.55,7.88-36.48,9.06-17.17,7.43-37.86,8.56-56.3,5.64-5.14-7.04-8.34-8-16.44-10.2-.39,2.53-.67,3.27-2.98,4.44-1,.51-19.74-.2-22.33-.56-6.47-4.57-12.3-5.11-19.99-4.55-36.92-7.64-74.23-14.23-111.95-19.76l-18.28-.15c-3.68-3.73-8.69-3.84-15.02-.34-14.91,1.45-29.44,4.86-43.6,10.21l-21.53,6.07c-1.99.29-3.39-.65-4.09-2.47-6.79,4.22-10.1.41-10.43-6.64-6.53,3.27-8.15,1.97-13.14-2.86-2.82-2.27-5.13.48-6.92,8.25-4.87,1.66-6.99,3.26-9.23,8.06-3.08,3.36-17.33.18-19.21-2.74-.59-10.39-2-12.58-4.21-6.54-1.99,1.22-3.41,3.29-4.27,6.19-25.68.45-49.74-2.81-74.76-11.47-13.85-3.24-28.04-1.88-41.78,1.23-31.1,1.55-62.24,4.03-93.4,7.42-19.99-.6-39.94-1.96-59.87-4.09-21.61-.82-43.54-.12-59.19,16.14-18.68,8.55-37.49,17.03-56.44,25.43l-11.33,9.46c-5.11,4.62-10.43,4.84-16.91,3.59-.47,5.84-2.43,10.28-5.89,13.33,2.53,8.63-1.87,12.5-13.19,11.61-.84-2.45-3.57-2.33-3.5.3,2.2.9,3.2,2.9,3,6-.66,3.75-.72,4.36-2,8-1.8,4.84-4.44,6.64-9.44,6.89,1.19,8.05.28,15.51-2.75,22.4l-4.1,1.46c-.72,7.55-7.04,7.6-8.19.14-4.06,5.46-4.75,5.18-9.49,1.02l.16,1.78c7.5,7.16,6.32,18.15,2.83,27.07.96,12.08,1.22,24.13.77,36.16-2.03,5.12-1.71,9.54,2.83,13.19-.42,4.42.59,6.7,3.02,6.84,8.76,5.8-9.32,20.53-8.64,10.04,2.64-4.77,2.95-14.35.76-19.26-3.11-6.99-10.07-8.01-15.64-12.3,2.08-12.65-.19-25.72,1.88-38.44.91-.94,12.32,5.61,14.79-2.7,2.8-9.45-6.89-17.82-6.78-21.82.03-1.17,10.14-16.42,11.54-20.42.8-2.28,0-4.78.97-7.03,3.2-7.47,20.76,4.31,24.71-7.29,2.51-7.37-4.09-11.12-3.19-14.12,1.03-3.43,10.74,1.33,13.43-4.62,3.66-8.1-8.5-13.58-13.48-17.52-.31-1.3,3.8-4.75,4.46-6.51,1.77-4.75-1.4-5.32,4.55-7.95l.86,1.77c-3.16,7.3,4.9.32-.86-1.77,3.72-1.65,7.71-2.6,11.55-3.95l32.15-29.94c4.2.92,6.43,4.85,11.06,6.64,4.16,1.61,12.9,3.79,15.7-.78,3.02-4.93-.14-13.45.97-15.01,1.79-2.52,6.64.63,9.15.96,13.71,1.84,8.98-7.39,10.42-8.92.63-.68,15.4-.6,18.49-1.01,9.27-1.23,21.46-3.76,30.31-6.69,3.39-1.12,12.19-6.21,14.71-6.22,2.96-.02,4.28,3.16,6.2,3.72s4.17-.2,6.28.72c1.29.56,2.83,3.25,4.66,4.34,7.35,4.38,14.43.29,20.75-3.82,3.12.62,5.93,16.97,17.52,10.38,6.01-3.42,7.72-15.08,11.67-15.46,1.44-.14,2.16,1.02,2.41,1.05q-.5,1.79,0,0Z"/>
  <path class="cls-36" d="M1585,9c1.06-1.35,2.37-1.43,3.94-.21,9.3-3.79,17.68,1.2,17.97,11.45l1.21-.36c.72-5.64,4.69-5.63,11.91.01,4.21-1.89,6.73-1.62,10.56,1.07,5.04-.33,9.63.66,11.11,6.15,13.19-6.23,27.39-8.13,41.93-5.83,6.23-.46,12.49-.15,18.79.95,1.14-2.8,3.54-3.88,7.2-3.24-1.66-6.72,10.39-5.2,12.9-2.14,3.26,3.96.62,6.91-2.89,9.31,13.71,3.74,26.75,8.98,39.14,15.72,3.59-2.84,9.91-6.42,14.45-7.13,1.54-.24,12.89.92,13.43,1.34.4.3.58.88.71,1.54-4.86,8.38-6.83,13.54,3.62,16.38,1.62.28-1.53,6.63-1.99,6.99-.31.24,2.82-7.31,3.99-5.99.89-.27,1.52-.07,1.67.76,1.42,7.75,2.75,14.3,12.76,12.58,8.66-4.9,12.63-3.27,11.9,4.9.82,4.74,3.74,7.36,8.37,8.36,2.48,5.9-.49,10.34-6.69,10.78-1.7,1.29,1.59,8.48,2.62,10.11,8.47,12.41,14.45,22.87,18.59,37.9,1.89,14.66,5.76,28.34,11.61,41.03-4.09,9.06-4.7,17.18-4.76,27.13-2.8,7.92.74,17.99,8.5,8.54,6.07-3.91,23.62-3.63,12.2,4.84-9.45,1.13-18.06,2.38-17.59,13.69-3.75,1.78-5.83,5-6.24,9.67l-2.36,1.78c-6.74-.4-4.49,4.4-.63,7.01l1.6,5.12c3.5.99,5.22,2.15,3.7,5.96,4.15,5.7-.87,12.24-6.49,7.38-5.6-.04,1.01,15,1.64,15.6,5.19,1.21,9.46,3.47,12.8,6.77,2.62-1.21,11.84.85,12.65,2.87-2.51,9.56-1.18,15.24,2.73,23.86l-.6,20.77c-2.58,2.84-6.59,2.63-12.04-.62-.88,3.05-2.66,5.83-5.32,8.34-3.67,7.09-5.09,40.27-3.45,48.74,2.01,10.37,8.04,25.19,13.28,6.82,1.71-2.96,5.36-3.84,7.52-.91.49.66,6.48,14.25,6.46,15.07-.06,2.61-4.44,5.56-6.44,4.15h-1l.34.9c-5.82,2.14-7.32,6.97-5.03,12.61,2.71,2.5,5.11,5.4.69,7.49-1.71,1.16-1.82,1.56-3,3-6.35,10.09,2.87,14.31,11.48,16.4,3.78,1.22,2.78,6.55.52,8.6-2.25,1.35-3.56,3.46-3.95,6.11-5.34.1-6.5.38-8.49,5.2l-4.19.56c-2.98,11.44-2.33,20.05.12,31.42l-.19,6.12c-3.34,13.56-.59,25.5,3.57,38.3,3.7-3.16,11.38-4.13,13.13,1.31,1.86,4.99,3.31,10.07,4.35,15.25l-1.35.75c-6.63,3.25-11.16,5.74-10.02,14.4-3.6,2.57-6.27,5.02-7.42,9.46.24,5.93.16,7.03-6.35,6.52-3.22,7.62-6.63,9.25-10.21,4.91l-.79,1.04c6.56,4.77,9.24,9.88,8.03,15.33l1.97,1.33c.24,4.56,1.13,8.8,2.68,12.71,7.16,5.04,7.75,9.34-2.22,8.14-.26,2.94-1.32,5.77-3.18,8.46,3.56,18.93,5.72,37.12,4.06,56.95-1.09,13.04-4.55,23.51-11.57,33.76,2.72,1.1,3.02,9.16,0,10l.9.65c-.85,4.72-.74,9.65.1,14.35,1.91.57,1.9,1.44,0,2,1.72,4.32,3.09,9.05,4.12,14.19,6.43,10.44,4,15.94-2.05,25.41-6.86,5.91-8,10.72-7.41,19.58,2.96,15.96,3.74,31.9,2.34,47.82.65,3.65.49,7.34,0,11-.82,1.9-.82,4.09,0,6v8c2.72,2.79,2.24,7.74-1,10,1.82,5.69.48,11.69-4,18,.35,6.27-1.61,11.5-6,16-.55,5.38-2.22,10.04-5,14l.59,3.63c-7.49,14.34-19.04,27.6-30.19,39.32l-3.4,1.05c-2.01,1.56-3.68,3.56-5,6,2.39,2.35-.77,6.75-4,6-1.49,6.02-6.16,9.02-14,9,.65,2.65.04,2.79-2,1l-11.24,1.14c-1.92,1.32-3.17,1.27-3.76-.14-.95,1.45-1.62,4.45-2,9,3.39.71-1.86,8.46-4.47,8.9-9.47-1.26-12.83-.56-12.32,9.57-1.27,3.06-10.47,4-12.21,1.52l-1.79-.65c-4.99-1.14-5.72-3.16-2.18-6.07l-1.03-3.28c-2.15,1.84-8.34.98-9-2-2.91,1.2-7.78,1.29-10-1-5.38,1.78-11.38,2.12-18,1-1.84,2.52-4.26,2-5-1-3.78-.79-7.44-.79-11,0-.19.89-.52.86-1,0l-11.6,1.32c-6.5-1.7-12.84-2.23-19.4-2.32-2.89-.77-5.89-.77-9,0-.2,3-4.71,3.56-6,1-4.64-.21-9.31-.21-14,0-.97,1.94-3.16,2.81-6.55,2.61-4.01,1.92-6.82,2.05-8.45.39l-2.75,2.75c-6.09.75-12.17.83-18.25.25-.19.89-.52.86-1,0-1.58-.78-3.41-.78-5,0-2.01.67-6.68,1.75-7-1-1.18,2.56-4.07,1.04-6,0l-.81,1c-6.39-2.14-12.79-2.8-19.19-2l-1.33,2.05c1.72,4.13-.17,5.78-5.67,4.95,3.13,3.17-7.5,4-8,1l-.72-3.91c2.15-1.69,3.52-4.03,3.96-6.99.28-1.85-14.31.32-15.24.9-.02.65-.35.98-1,1,3.24,2.37-1.33,4.17-4,3-1.22-.68-1.48-1.62-2-2-2.03-1.91-3.03-3.58-3-5-3.22-1.23-6.78-1.51-10.68-.86-1.17-6.02-6.94-6.46-11.26-.96l-4.07-.18c-1.02,3.33-9.13,3.82-11,1-1.71.54-3.4.96-5,0-.69,1.84-2.64,2.71-5.83,2.6-3.42,1.89-5.81,2.03-7.17.4-3.06,5.6-10.45,2.34-12-2l-3.82-.24c-1.42,1.74-6.11,1.08-6.72-1.19-4.18-.28-8.34-.14-12.46.43-.25.87-.58.85-1,0-.54-.08-2.48,5.28-2.29,5.55,6.94,3.78-2.15,7.14-6.71,6.45.44,7.5-10.73,5.9-13,1-2.69.22-4.83-.42-7-2l-1.38.15c-6.61-9.51-13.35-5.53-16.81,3.83-2.45,1.89-11.2-.54-10.81-3.98l-2.48-1.14c-1.38-3.85-2.53-5.01-6.68-4.42-6.25,2.85-9.87,2.7-10.84-.44l-1.29,1.76c-12.15-1.96-24.08-2.33-35.8-1.12-2.79,3.44-9.35,7-7.91.36-.74-1.32-1.66-2.28-3-3-1.58,2.62-5.72.77-6-2-2.88-.39-5.42.89-7.64,3.82l-1.36-.82-1.33.7c-3.99-3.62-8.2-6.91-14.05-5.51l-.62-1.19c-5.52,1.47-11.25,2.17-17.18,2.1l-2.81,1.65c-.16,4.89-8.53,2.33-12.01,1.26-.19.89-.52.85-1,0-2.92.47-5.88.67-8.86.6-4.01,1.46-5.36,1.43-8.14-1.6-.25.87-.58.85-1,0-3.2-1.04-6.67-1.8-10-1-2.31,3.08-6.09,3.55-9,1l-5,1c-.25.89-.58.87-1,0-1.52.91-3.44.73-5,0-.74,3.02-8.22,4.61-10,2h-7c-1,2.99-5.55,2.06-6-1-2.54-1.64-5.2-2.98-8-4-2.12,2.02-3.59.81-3-2-2.77.39-5.44,1.39-8,3-.33.87-.67.87-1,0-9.92,2.25-19.92,2.89-30,2-.79,3.42-8.84,2.2-9-1l-6-1c-1.03,1.77-3.08,2.94-6.16,3.52-2.23,2.95-8.66,7.35-8.84,2.48-5.52-3.86-13.46-9.22-21.24-7.15-3.98,1.26-7.92,1.85-11.8,1.76,2.19-8.19-3.76-14.58-11.3-9.2-6.09.33-12.13.42-18.1.25-4.1,1.77-8.62,2.55-13.57,2.34-1.42,2.75-5.36,7.24-7.92,9.88-.19.2-.61.19-1.08.12-4.86-1.9-7.11,3.38-4,7,.76,1.14-.74,2.76-2,2-2.04.38-3.13-1.43-4-3-1.07.26-2.31.02-3.71-.72-1.89,2.74-5.6,6.49-7.29,2.72-1.29-1.36-2.29-1.36-3,0h-1c-1.93-1.14-3.08-2.9-5-4-1.6-1.34-1.6-2.01,0-2-3.91-1.39-6.93-3.35-9.06-5.89l-6.94.89c-.18.89-.52.86-1,0-2.76.75-5.54-1.75-7-4-3.41.54-6.53-2.56-9-5,2.19.19,4.24.92,6.46,1.04,9.87.52,20.01-.09,29.88.32,7.42.31,21.73,3.62,28.95,1.65.76-.21,1.4-2.29,2.95-3.26,3.77-2.34,14.3-5.13,17.29-8.73,1.96-2.35-1.38-2.18-2.05-3.01s.81-2.02,1.02-2.02h16c.2,0,2.25-2.86,3.47-1.99.34.24.29,3.46,2.5,2.98,1.28-.28,4.06-5.45,6-4.99,1.32.31,1.88,3.68,2.82,4.71,2.63,2.87,9.92,3.55,13.7,3.3.25-.87.58-.85,1,0l11.97,4.55c4.75-.33,10.65-.56,13.02,4.44-4.54.94-9.32-.99-13.48-1.03-1.62-.01-2.64.99-1.52,2.03.59.55,13.95,4.13,15.52,4.1,1.31-.02,2.26-.07,3.5-.61,2.81-1.22-.3-3.93,2.35-3.37,5.58,1.18,3.72,3.99,4.52,4.42,2.48,1.34,12.27,1.65,15.35,1.2,4.49-.64,8.44-3.23,13.27-3.72,4.44-.45,9.47.19,14.03.04,9.82-.33,19.32-.84,28.97-.96,3.55-.05,6.9-1.53,10.5-1.08-.16.98.26,3.68-.02,3.96-1.68,1.68-17.17-2.89-14.48,5.04,11.1,1.09,22.36-3.12,33.01-3.99,5.21-.42,26.56,1.4,28.2-4.68.38-1.4-1.61-3.35,4.04-4.17,1.84-.27,3.31.7,4.62.55,1.71-.2,3.81-2.82,5.7-1.29,1.15.93.46,3.43,1.44,3.58,2.58.41,3.35-1.98,5.25-2.74,6.95-2.77,5.5.3,9.52,1.95,4.96,2.03,7.22,3.06,11.76,5.24s26.99,3.3,33.47,3.53c38.56,1.36,77.08-1.52,114.95-3.03,19.88-.79,43.64,4.35,62.57-.43,1.1-.28,4.66-2.12,4.91-3.13.64-2.58-6.64-6.15,6.07-5.4.33-.68.67-.68,1,0,5.89,1.19,11.89,1.85,18,2,.33-.87.67-.87,1,0,3,3.74,7.28,1.99,10.81,2.6,8.91,1.54,18.21,2.12,26.18,4.76,15.08,5.01,29.84,8.53,46.23,5.35,6.45-1.25,4.18-5.1,5.72-6.27,5.13.14,12.73-4.42,17.11-3.02,2.04.66,3.45,3.08,5.24,3.84,6.45,2.75,12.35-7.1,18.18-7.35,6.49-.29,3.97,1.41,6.08,4.04,2.87,3.57,44.32,6.84,48.76,4.1.9-.55.99-2.46,2.32-2.89,1.52-.5,9.03-.47,10.93-.22,3.38.45,3.73,2.89,6.93,3.16,11.99,1,29.17-2.88,40.72.19,1.62.43,2.83,2.28,4.49,2.53,1.97.3,4.77-1.36,7.29.17-.26-1.93.48-4.54.01-6.28-.65-2.43-7.37-3.07-5.55-8.75,2.25-7.01,10.16-9.13,16.82-7.74,4.18.87,6.26,5.27,11.46,3.02,2.35-1.02,12.36-12.18,10.27-14.25-7.31,1.57-2.49-4.62,0-7,1.85-1.77,7.32-4.85,9.65-7.35,1.83-1.97,5.96-9.3,7.38-10.12.44-.25,6.48-1.91,7.44-2.06,1.11-.18,3.8,1.1,4.49.5.17-.15.25-2.99,1.14-4.36,1.16-1.79,4.69-3.48,6.73-6.28,5.94-8.13,10.78-20.27,11.17-30.33l-4-1.49c4.87-2.85,6.52-1.08,9.18-6.83,8.43-18.28,6.9-56.79,5.8-77.17-.65-12.05-4.43-25.24-1.26-37.3.69-2.64,4.31-9.52,4.27-10.74-.07-1.97-2.38-2.65-2.59-3.93-1-6.1,5.08-2.09,5.6-2.54,2.38-2.06-1.7-4.85-1.75-5.49-.06-.71,1.57-2.23,1.64-3.96.12-2.81-2.12-8.89-2.78-12.16-1.35-6.76,2.09-8.73-7.1-5.4-.9-4.68,1.59-2.08,3.98-3.49,3.44-2.02,1.7-19.96,2.15-24.88.83-9.11,5.03-17.46,6.58-26.42,2.67-15.49,3.42-31.86,1-47.41-2.88-18.57-17.47-54.03-10.59-71.09,2.93-7.27,6.91-3.22,8.45-4.58,1.11-.98,2.41-5.32,2.41-6.78,0-3.43-4.34-5.25-3.82-7.71.23-1.08,2.23-1.93,2.66-3.34.74-2.41-.28-5.34.25-7.75,2.51-11.37,1.91-15.07,2.94-26.06.23-2.5,2.34-6.35,2.09-7.89-.21-1.28-4.86-.79-5.11-4.1s.9-8.19,5.03-6.51c.24-2.17-1.82-3.26-1.89-5.45-.1-3.08,2.62-8.83,2.92-13.01.54-7.53-2.12-11.07-2.5-17.02-.49-7.81.86-23.52,1.49-32.01.69-9.25,6.37-12.55,8.99-21l-8.01,2.48c-.36-.28,4.19-3.5,3.07-7.41-.31-1.07-3.67-.46-3.84-2.02-.08-.7.98-2.51.86-4.04-.98-13.01-7.81-24.99-8.96-38.15-2.31-26.37,6.95-48.61,2.6-74.6-4.79-28.68-17.01-42.69-13.61-75.15,1.27-12.12,10.88-29.36,10.88-40.12v-21c0-3.94-6.48.07-7-.5-.14-12.33-4.7-23.78-4-36,.49-.53,1.95,1.91,2.49,1.91,3.94,0,1.59-11.53,1-13.92-4.08-16.69-29.59-43.25-29.59-54.51,0-1.8,1.13-5.34.97-5.93-.18-.67-10.75-7.47-11.43-7.58-3.78-.63-6.3,1.91-9.06,2.01-5.2.2-17.83-14.72-22.47-18.41-2.89-2.29-17.05-11.42-19.91-12.17-3.06-.8-4.7.73-7.39.56-4.45-.29-12.62-4.37-17.61-5.57-1.91-.46-3.52.57-5.05.17-2.21-.58-3.85-3.75-6.66-4.37-9.7-2.16-28.64-3.94-38.76-4.26-1.92-.06-6.57-.09-7.95.94-1.13.85-.31,3.07-1.04,4.14-2.04,3.01-30.62-1.74-36.07-2.02-3.46-.18-9.27-.48-12.49-.01-2.51,1.13-3.35-.84-3.5-3.34-6.08.03-12.52.02-18.41-1.19-.91-1.95-2.1-1.78-3.58.49-5.98,2.29-20.68-.44-8.96-6-2.89-3.11-1.74-5.57,3.45-7.39l4.01-3.58Z"/>
  <path class="cls-5" d="M991,12c3.91,1.46,5.99,4.52,10.66,4.65,3.67.1,7.87-3.3,10.63-2.52,3.13.88,2.53,9.49,11.31,9.83,5.75.22,9.84-7.79,12.77-6.9,1.22.37,2.24,3.32,3.59,4.48,5.08,4.38,8.47,6.48,15.6,5.51,7.46-1.02,5.75-9.96,10.98-11.02,1.41-.29,8.71-1.14,9.88-1.03,3.19.3,5.02,3.73,8.52,4.57,2.51.6,7.11.82,9.63.48,6.02-.83,9.07-10.18,12.15-10.94s7.22,5.71,11.9,5.85c4.3.13,8.8-5.24,11.82-4.99,3.42.28,6.01,6.05,12.02,5.04,2.92-.49,3.72-3.65,5.57-4.51,3.73-1.72,14.31,3.8,19.58,4.39,7.12.8,16.69-.24,23.69,1.31,3.55.79,6.83,6.1,11.27,6.76,6.93,1.04,8.58-3.98,10.93-4.01,2.86-.03,3.55,4.6,5.49,5.55,6.88,3.37,11.69-4.24,14.47-3.5,2.31.61.25,9.53,6.8,12.23,8.82,3.64,11.17-6.98,14.21-6.24,11.22,18.74,20.77,1.63,23.01-12.03l1.15-.85c4.43,1.56,11.87-2.45,14.85-2.15,3.17.33,4.12,5.5,12.88,4.92,10.57-.7,7.95-5.96,13.09-8.95,6.53-3.79,10.29,4.89,17.12,5.99,9.22,1.47,14.4-4.14,17.86-3.96,3.27.17,5.16,4.31,10.07,4.09,7.66-.34,14.36-10,18.98-10.13,7.94,2.22,16.01,6.76,24.29,7.8,7.38.93,17.21-.98,23.73.27,2.25.43,5.77,4.15,9.28,4.77s6.12-1.18,8.69-.82c2.25.31,3.04,2.97,5.02,3.03,3.42.11,7.33-6.58,9.98-5.97,1.2.28,2.26,5.12,4.05,6.99,3.76,3.93,11.21,6.7,16.49,4.47,4.43-1.87,6.32-11.04,9.55-11.54s6.42,3.67,12.96,3.07c7.04-.64,10.11-6.88,12.01-7.07,2.63-.27,4.86,2.33,7.21,2.84,7.63,1.63,11.73-1.87,17.84-2.72,9.34-1.3,25.01-2.39,34.9-3.1,13.61-.97,27.28,1.85,40.91,1.17,2.64.9.79,8.32,5.33,9.67,2.8.84,9.05.25,11.98-.63,2.7-.81,6-4.37,7.69-4.05,2.62.5,2.45,7.48,8.19,7.84,9.42.6,13.52-12.54,17.97-12.99,3.24-.33,9.59,3.49,15.02,3.11,3.88-.27,7.62-3.23,11.89-3.02,4.83.24,9.38,5.12,15.18,5.81,3.76.45,10.21.92,13.99,1.01,2.76.07,5.66-1.79,8.73-.75.94.32,4.95,7.38,7.64,9.36,10.45,7.72,19.38-3.71,24.3-2.39,3.51.95,9.15,11.01,12.19,12.9,2.14,1.33,7.13,1.54,8.1,2.91,1.84,2.62-2.68,4.86-3.35,7.77-2.57,11.02,7.06,7.2,9.89,10.69,2.01,2.48-.5,7.19,3.37,10.63,6.66,5.91,16.16-2.72,20.53-.53s-.89,11,5.44,14.56c4.03,2.26,8.84-.1,12.86,1.14,1.9.58,2.94,3.72,4.75,5.25,2.46,2.08,6.18,2.32,7.46,3.54.88.84,8.55,19.73,9.51,22.49,2.34,6.76,3.06,16.15,5.46,21.54,1.8,4.03,5.95,5.55,7.56,9.52.37,2.3-8.75,4.7-11.09,6.93-7.78,7.38,1.71,9.12,2.1,13.1.27,2.81-2.56,3.5-3.05,5.97-2.09,10.6,12.5,10.92,13.8,15.17-.17,8.62-1.27,17.18-.84,25.84.22,4.4,4.24,11.54-1.67,13.26-2.02.58-4.43-.07-6.56.44-7.91,1.89-11.65,6.65-9.49,15.02,1,3.89,8.77,8.8,8.79,11.24s-7.66,5.82-10.03,9.01c-10.69,14.35,10.3,14.03,10.99,17.01-1.99,5.18-9.11,6.56-8.01,12.94s11.86,6.07,12.88,9.22-2.24,7.68-1.94,11.82c.32,4.4,4.77,9.47,5.08,12.08.85,7.03-1.07,18.27.04,25.87.42,2.84,5.11,12.64,3.53,14.62-1.08,1.36-6.02.65-8.4,5.71s2.29,8.21,1.7,10.52c-.55,2.15-4.9,3.37-4.94,8.19-.06,7.13,6.12,7.9,6.87,10.18.8,2.4.53,7.94,1.45,11.55.83,3.24,4.97,9.85,4.74,12.26-.44,4.67-9.96,4.01-12.51,9.55-2.85,6.2,3.93,7.88,3.53,12.48-.24,2.83-2.2,1.93-3.06,2.51,4.93-4.79-1.62-5.06-2.02-6.71-.33-1.37-.24-7.23.04-8.77.71-3.83,4.29-3.86,5.97-5.52.3-.55.64-.53,1,0,2.09.61,6.17-2.34,5.87-4.32-3.08-2.03-6.29-13.95-8.46-14.62-4.62-1.42-4.73,9.77-8.36,11.46-1.19.55-6.28-1.77-7.12-2.95-.44-.61-4.36-12.79-4.69-14.31-1.79-8.01.19-44.33,3.92-50.62,2.32-3.91,7.16-4.11,2.85-9.64,12.86,1.16,15.04,11.62,15-7.5,0-3.36.3-9.34.09-12.02-.23-2.96-2.67-4.35-3.12-7.97-.58-4.67.24-9.91,1.03-14.52-4.31-.25-9.68-2.14-12.99.99.14-5.39-9.23-5.95-13-8.51-.61-.42-4.84-12.75-4.87-14.01-.12-3.95,6.33-7.42,7.35-2.48,6.23-2.93,2.54-4.33,1.8-7.68-.24-1.06,1.02-2.86.72-3.29-.15-.21-2.85-.31-3.78-1.25-1.04-1.07-1.26-4.42-2.18-6.07-.51-.92-2.43-1-2.88-2.33-2.96-8.91,3.8-6.35,5.68-7.52.85-.53,1.5-6.5,2.68-7.86.91-1.06,2.85-.66,3.58-1.64,1.67-2.28-1.63-9.08,6.68-12.07,2.15-.77,18.4-1.43,15.22-6.26-3.35-1.65-11.08.62-14.31,2.2-1.34.66-1.32,2.17-2.47,2.73-7.88,3.83-6.08-2.51-10.1-6.66,3.66-7.48,1.45-16.15,3.13-24.56.61-3.07,3.93-7.07,3.64-9.01-.25-1.66-2.8-4.14-3.61-6.49-6.32-18.2-5.54-35.87-15.44-54.56-3.19-6.03-17.87-23.56-13.39-29.75.98-1.35,9.16.51,6.64-8.32-.27-.96-2.53-.68-3.57-1.57-4.32-3.68-5.93-8.4-5.5-14.05-3.74-1.57-7.2,2.79-9.44,2.91-.42.02-8.03-.92-8.37-1.17-.27-.2-3.73-4.93-3.98-5.45-1.35-2.81-.54-6.46-2.22-8.28-1.61,2.25-2.31,1.66-2-1-.86-.28-2.47.08-3.98-.47-10.14-3.69-2.48-9.58-1.02-16.52-4.05,2.08-6.87-.38-9.46-.54-4.54-.29-9.61,2.97-13.78,4.79-1.56.68-2.58,2.73-4.07,2.6-2.3-.2-13.26-6.96-16.69-8.35-4.16-1.67-22.22-6.44-23.98-8.02-3.42-3.06,4.05-3.62,4.02-6.98-.03-3.9-7.04-5.86-10.13-4.04-1.18.7.61,3.2-.83,4.08-1.77,1.08-5.4-.04-6.03.56-.42.4.54,2.74-.6,2.96-1.39.27-6.41.17-7.91-.11-5.31-1.01-.98-2.14-8.13-1.07-7.73,1.16-9.36-.71-14.92-.71-3.33,0-9.72.98-14.17,1.2-6.06.3-5.91,1.27-9.59,2.9-2.12.94-6.14,3.03-8.22,2.8-3-.33-1.6-2.49-2.15-3.07-4.5-4.76-4.77-2.39-8.76-3-2.05-.31-4.01-2.72-6.11-2.6-1.41.08-2.49,1.76-4.75,1.45s-7.6-4.85-8.25-4.82c-2.54.15-.34,3.8-.49,3.96-.23.25-6.19,1.97-6.53,1.93-.73-.09-1.52-1.51-1.51-2.42,0-.63,1.99-.4,2.1-1.08.38-2.28-3.06-7.53-5.11-8.88-5.68-3.72-7.65.53-11.33.2-1.29-.12-2.62-1.59-3.64-1.74-.07,1.63-1.86,2.26-3,1-2.63,2.34-6.17,3.57-9,1-.7,2.75-2.84,2.24-4,0,.06,1.68-.26,2.43-1.86,2.65,2.3,7.52-10.94,8-10.73,1.45-2.42.81-3.58,1.75-.57,2.55,5.18,6.28-6.32,9.17-9.94,3.06-12.52,5.43-27.82,6.75-40.95,4.42-.97-2.31-2.35-5.05-5.28-3.24-1.93,3.88-5.99,4.94-6.64.02-5.07,7.1-9.97,10.66-18.64,6.3-3.21.02-5.44-.57-7.51-3.08-3.06.88-5.88,1.15-7.87-1.77-2.31,2.2-4.66,3.73-7.07,4.61-7.24-4.58-15.89-8.4-24.75-6.65,9.69,1.65,6.73,9.97-2.35,7.99-6.5-1.28-12.92-1.56-19.26-.85-5.77-1.58-11.87-1.82-18.3-.72-2.26-3.23-4.37-6.8-6.33-10.71-2.99,4.05-6.15,1.04-8.65-1.91-3.52,7.47-13.11,1.99-18.31-1.29-5.91,7.5-17.96,5.86-24.97.81,2.69,2.16,11.03,9.44,8.37,14.26-1.11,2.01-13.45,4.53-16.3,4.85-3.3.38-22.77.89-25.23.46-4.19-.72-16.78-4.66-15.78-9.79h-.9c-.74,3.58-5.58,12.97-8.92,14.42-1.41.61-29.29,2.7-30.59,1.88-1.51-.96-7.52-13.52-6.65-16.75-1.89,2.22-3.56,2.89-5,2-3.94.61-8.31,2.38-11.48-1.04-1.39-1.5-.97-5.41-4.02-3.96-1.47.7-1.05,3.22-2.16,4.08-1.3,1.01-5.02,1.11-6.66,2.11s-1.95,3.18-3.35,3.65c-1.7.56-7.8-.59-5.85,3.16.51.97,2.05,1.22,1.51,3-6.98.97-13.71-1.44-20.51-1.98-9.46-.76-25.11-2.5-33.82-1.63-6.78.67-16.01,4.82-22.2,4.72-4.4-.07-12.36-7.39-7.47.38-.63,2.76-17.6,3-21,3.52-.74-3.34,2.4-1.36,4-2.48,3.97-2.79-2.56-4.79-4.39-6.63-3.55-3.57-3.21-7.54-5.58-10.41-4.35-5.25-8.98-4.46-15.03-4.47-1.44,1.41-3.44,2.41-6,3-1.04,2.5-.95,5.07-3.05,6.45-5.65,3.72-10.54,3.39-16.95,2.55l-2.01,12c-2.22-1.29-5.23-.82-7.04-2.72-5.89-6.19-.03-5.96.85-7.46,2.65-4.52-6.37-1.54-4.8-6.82-4.81,4.66-5.88.22-6.68.02-1.66-.41-3.81.32-5.31-.02-4.26,3.23-6.73-3.64-7.99-7.33-.93.64-1.87.96-3.01.33-1.24.46-11.38.11-13.28-.26-3.89-.76-2.52-2.62-2.72-2.74-1.87-.84-2.73-1.4-1-3Z"/>
  <path class="cls-40" d="M126,1017c-1.63-4.98-1.9-11.47,5.38-8.88,1.14.41,5.92,12.38,7.62,13.45,2.09,1.32,5.14-2.13,6.53-2.19.43-.02,7.3,2.03,8.2,2.39,6.35,2.58,9.05,10.3,16.26,13.74,21.25,10.12,70.38,15.28,93.54,12.51,3.9-.47,6.64-3.14,10.93-3.06,2.9.05,11.19.74,13.82,1.26,3.75.75,7.92,5.39,10.28,5.79,3.02.52,9.36-2.85,13.91-3.05,4.93-.22,26.5,1.4,30.58,2.45,2.37.61,4.31,4.52,7.45,4.51,2.7,0,6.31-3.72,9.43-4.5,7.93-1.98,11.25.3,17.73.51,3.47.11,18.43-.75,20.15.28.93.56.21,3.26,3.7,2.81.34-.04,2.05-5.5,4.52.48-5.04.49,3.21,5.75,5.46,5.57,6.35-.5-2.51-5.69.49-7.59.42-.27,8.84-2.4,9.63-2.45,7.08-.51,15.56,3.66,19.94,3.94,9.68.6,22.57-4.28,32.95-4.05,3.59.08,12.29,4.22,12.95,4.06,1.27-.32.49-4.15,6.02-3.03,1.43.29-1.89,3.99,5.07,3.1,3.19-.41,5.9-2.64,10.04-3.03,3.92-.37,6.71,1.59,9.09,1.8,1.32.12,2.43-1.63,3.9-1.84,2.06-.29,3.8,1.13,4.84,1.06.55-.03.95-2.26,2.96-3.15,2.97-1.33,8.21-.27,9.71-1.32,1.1-.78.45-3.45,1.5-3.64,1.9-.34,4.07.96,5.8.79,1.61-.15,3.18-1.69,6.11-1.79,6.63-.23,5.27,3.53,7.11,3.98,1.29.31,3.38-1.56,4.92-1.52.97.03,9.54,5.87,9.98,6.63,1.18,2.04-.66,7.03,3,7.01s1.04-7.63,9.08-7.94c5.07-.19,32.8,1.11,36.14,2.72,1.87.9,3.9,3.83,5.78,3.85,2.29.02,5.88-4.18,9.98-4.67,8.46-1.01,15.99,1.62,23.98,2.07,17.58.99,32.93,2.34,49.55-2.53,19.89-5.84,48.92-1.33,69.5-3.5,5.48-.58,12.04-3.27,18-4,22.89-2.81,46.09-3.77,68.87-6.13,1.55-.16,3.03-.91,4.61-.89l-2.99-3.98c8.69-1.7,15.15-3.84,24.01-1.52,6.82,1.78,10.63,5.45,15.99,8.51,2.99,1.71,6.02,3.3,9,5,1.87,2.52,3.8,4.21,7,4,.33,0,.67,0,1,0,4.65-1.92,8-1.17,10.06,2.25l5.94,2.75c.19.4-.13,1.4,0,2-.82-.47-5.19-3-5.5-3h-15c-.74,0-2.62,2.06-4.58.58-1.48-1.12-.86-10.59-8.51-11.56-8.42-1.07-8.84,8.17-12.85,6.95-2.22-.67-3.36-11.46-12.08-11.08-9.23.41-9.1,13.14-10.49,14.1-2.64,1.81-6.4-5.11-8.69-5.79-12.32-3.66-11.82,7.61-15.93,14.71-13.35-2.16-27.21-2.88-40.62-.67-5.39.89-17.61,6.27-21.76,4.25-2.37-1.15-3.15-7.78-8.57-8.5-6.54-.86-9.44,6.06-11.93,6.04-1.81-.01-2.65-2.36-4.2-2.84-8.84-2.77-12.29,7.84-15.8,7.84-4.16,0-7.52-12.52-16.86-6.89-1.56.94-3.08,3.42-4.34,3.75-2.83.73-5.48-5.67-13.22-1.32-1.4.79-2.22,2.76-3.77,3.22-3.71,1.12-15.04-.46-19.36-1.24-10-1.82-25.46-9.75-34.48-9.58-5.09.1-11.08,7.92-12.45,7.02-.23-.15-.78-3.48-3.05-4.52-3.3-1.5-13.96,2.05-11.97,7.52-2.95-.02-3.04-3.06-6.47-3.08-3.95-.03-7.11,4.26-11.98,4.13-4.41-.11-6.67-3.45-10.09-4-6.06-.98-16.55,1.32-21.76-.24-4.91-1.47-1.75-14.38-12.22-13.9-6.83.31-10.72,10.7-15.02,11.15-4.59.47-6.03-9.67-13.96-9.15-5.31.35-6.92,7.34-9.48,8.6-3.26,1.61-9.05-1.06-13.25.52-1.36.51-1.22,2.32-2.16,3.03-3.19,2.42-18.11-1.74-23.12-2.05-18.06-1.12-34.07,4.86-51.06,6.9-11.28,1.36-13.08-4.18-20.04-4.87-4.58-.45-8.56,3.05-12.68,1.78-2.99-.92-2.6-6.42-5.17-5.81-.79.19-5.26,5.02-7.48,5.6-1.68.44-2.1-2.38-4.33-2.4-.51,0-9.14,1.8-9.94,2.07-2.6.87-7.62,4.97-10.22,4.78-3.85-.28-4.29-10.18-12.14-11.05s-9.48,9.61-14.9,10.09-11.38-3.95-17.12-4.98c-4.7-.84-16.56-.13-19.76-1.24-1.79-.62-1.82-5.42-4.08-7.92-6.61-7.29-10.09.84-15.11,5.01-2.86.64-1.78-7.43-10.15-3.18-5.38,2.73-6.74,10.38-14.58,8-3.25-.99-2.87-5.6-9.12-4.77-4.41.58-5.85,5.11-8.31,5.82-2.94.85-7.95-1.69-12.57-.62-3.61.83-4.53,4.89-8.09,4.78-19.74-6.28-39.18-13.96-59.68-17.43-3.29-2.24,2.98-18.52-10.53-20.47-2.93-.42-16.41,2.01-16.41-.6v-15c0-.14-1.56-1.79-2.01-2-3.6-1.75-4.04.5-5.99,2.5Z"/>
  <path class="cls-39" d="M76,129c-1.35,3.85-2.5,6.13-4.43,10.06-.66,1.34-2.26,2.72-2.56,3.46-1.33,3.31,6.18-.52,6.01,2.99-.12,2.4-1.38,4.12-1.8,6.22-1.49,7.55-4.17,17.62-5.17,24.83-.35,2.52,1.5,15.39-3.92,12.29-2.8-1.6-.9-6.43-1.11-8.29-.54-4.99-4.66-1.99-7.3-2.72-1.64-.45-4.09-4.29-6.21-3.85-2.46.51-1.26,8.12-1.56,10.45-1.4,10.76.1,16.57.1,27.05,0,7.41-1.61,16.32-1.99,23.87.77,2.33,4.15,1.14,5.93,2.13,3.21,1.81,2.87,20.32,4.51,25.49,1.43,4.52,14.03,23.69,10.5,27.01-.75.71-4.44-1.46-3.89,1.36,1.1,5.66,4.35,3.96,5.99,6.04,1.04,1.32.49,3.26,1.17,4.33.5.79,2.56.52,2.8,2.76.33,3.01-4.75,4.25-4.58,8.5-4.87-4.66-.11-11.77-5.49-16.52-.98-.73-2.94,2.18-4.12,2.97-.94.63-2.8.47-2.9.57-.37.38.97,2.49.92,3.54-.08,1.51-1.7,2.51-1.87,4-2.32,20.11-3.26,43.91-3.09,64,.15,17.44,4.07,34.92,2.02,51.92-.54,4.47-.18,16,0,20.99.96,28.21,7.63,51.56.39,80.4-1.51,6.01-7.56,16.4-8.16,20.92-.54,4.1,1.85,8.42,1.68,11.78-.09,1.87-1.74,3.17-1.79,4.92-.07,2.58,2.91,9.23,2.95,13.07.03,2.7-1.28,5.13-1.12,7.94.3,5.31,1.78,19.13,3.31,23.78,1.26,3.81,6.84,2.02,7.71,6.24-9.7,7.12.94,4.06,2.11,4.9,1.56,1.12.86,4.79.95,6.59-4.54,1.13-2.04-2.72-5.03-4.47-8.18-4.77-5.42,4.27-5.98,8.95-.4,3.31-2.51,19.73-4.64,20.4-1.51.48-4.65-2.02-5.38,2.63-.33,2.09,5.14,3.01,7.03,4.49-2.46.22-12.73-2.67-13.53-3.97-1.05-1.69,2.47-4.33,3.1-6.96,1.87-7.71-2.64-9.51-9.57-9.07,2.18-10.71,4.08-21.44,3-32.49-.63-6.43-5.8-16.72-5.96-21.11-.08-2.46,2.57-6.59,3.52-9.34.65-1.87.01-4.5.93-6.07,1.96-3.32,14.73-3.9,15.57-11.46,1.03-9.21-6.56-7.37-12.06-12.05-.49-1.96,5.2-5.03,5.83-7.21,1.95-6.76-7.98-15.81-13.82-17.83,5.88-9.51,7.24-20.75,5.91-31.87s-2.61-8.18-1-20.16c.58-4.28-.78-9.92,2.68-13.32s12.93-3.69,13.38-10.68c.38-5.89-7.19-7.54-9.05-11.94.01-3.5,11.68-3.98,8.61-13.55-2.1-6.53-9.43-4.2-11.08-6.92-2.13-3.49,1.96-4.8,2.51-7.53,2.39-11.77-7.91-9.64-8.97-15.02-.92-4.71,1.95-15.35,2.05-20.94.12-7.14-2.5-14.9-2.96-22.14,1.76-8.64.39-18.26,1.9-26.9,1-5.68,11.12,1.26,13.55-6.44,1.74-5.52-1.74-8.58-1.55-9.53.56-2.8,28.36-4.7,11.5-17.52-1.79-1.36-6.26-2.76-6.46-3.05-1.36-2.01,5.66-5.81,1.83-13.33-2.52-4.95-9.57-4.71-9.87-6.14-.31-1.51,4.06-4.79,4.99-6.48l2.98,3c.02-3.27,7.14-5.24,6.87-8.31-.36-4.05-4.5-2.66-5.34-4.65-.89-2.1-.11-4.37-.77-6.27-.89-2.55-4.02-6.25-4.27-8.66s2.06-3.7,2.26-5.74c1.02-10.23-2.37-25.07-1.69-35.83.22-3.53,4.36-5.1,4.08-11.08-.08-1.65-2.29-8.46-3.03-10.04-1.37-2.92-5.02-4.45-3.99-7.81,1.18-3.84,5.8-.36,6.42,2.38,1.73-1.71,2.89-5.82,5.98-4.99,2.1.56.6,7.56,4.48,4.97.4-.27.53-3.88,1.27-4.74,1.02-1.18,4.02-.46,4.8-1.94.62-1.17,1.82-8.95,1.95-10.81.17-2.38-1.2-10.58.15-11.36,1.69-.99,8.9.25,10.87-5.12Z"/>
  <path class="cls-17" d="M1871,723c-10.5,7.23,2.17,15.78.88,20.29-1.11,3.84-12.42,4.48-11.98,12.21.23,4.14,4.32,4.79,4.96,7.23.54,2.03-.94,4.52-.96,6.79-.07,8.38,9.2,6.79,10.01,9.12.45,1.29-1.2,12.15-.89,15.85.45,5.3,3.13,10.14,2.99,15.51-3.85-.32-8.73-.12-11.08,3.44-3.29,4.98,3.81,9.52,2.95,12.86s-14.57,5.66-13.93,12.15c.35,3.54,7.48,6.59,7.97,8.2.9,2.96-4.95,5.76-2.39,11.33s13.92,7.33,14.34,9.66c-5.2,9.65-8.69,18.29-6.63,29.63.61,3.35,4.07,6.32,3.78,9.18-.18,1.8-2.23,3.2-2.78,5.29-.76,2.9-.74,10.62-1.71,12.29-.75,1.28-4.36,1.81-6.04,2.97-8.54,5.89-1.57,9.59-2.96,12.98-1.57,3.84-9.83,1.92-14.52,8.54-5.72,8.05,4.65,8.05,5.87,12.2,1.07,3.67-4.85,7.38-4.78,11.82.06,3.92,5.6,5.73,4.78,8.77l-16.9,23.26c-5.1.13-20.77-5.35-24.08-1.15-2.89,3.67.78,13.43-.34,15.59-1.04,2.02-4.25,1.81-6.1,2.98-8.51,5.38-2.87,10.72,2.52,15.53,0,2.47-27.02,11.89-30.55,15.53-4.24.36-11.2-10.11-18.72-7.84-3.23.97-5.81,7.35-7.73,8.37-2.33,1.24-6.75-2.33-10.56.37s-1.35,8.82-3.41,10.59c-2.36,2.03-27.05,4.3-30,2.96-5.35-2.42-5.63-10.11-15.5-10.54-8.03-.35-5.6,2.2-10.12,7.02-1.47.29-6.57-6.04-10.9-6.03-7.14.02-7.89,7.87-11.05,8.11-2.38.18-4.46-2.55-7.08-2.74-5.14-.38-8.1,4.64-11.82,4.73-4,.1-9.42-2.54-13.13-2.97-9.43-1.08-24.91.97-34.8,2.05-3.94.43-15.88,4-18.14,1.89-1.24-1.16-1.85-4.39-4.46-6.54-10.88-8.99-15.61,7.06-22.46,6.52-1.57-.12-2.87-1.46-4.33-1.74-3.6-.67-8.42-1.81-11.86-2.14-4.28-.41-12.54.77-15.72-.28-2.69-.89-2.11-8.14-10.1-7.89-3.01.1-3.25,1.9-6.56.05,3.81,1.04,2.86-1.84,4-3,1.87-1.03,4.05-.53,6,0,4.11-2.29,8.25,4.51,7,9,1.45,1.43,3.54,1.36,5.52,1,2.18-.4,2.18-1.84,2.48-2,4.51.5,7.85-.17,10-2-5.52-3.81-2.74-4.74,2.61-5.25,6.35-.61,12.68,1.55,18.03,4.67,6-3.48,13.14-1.91,19.82-.27,4.79-4.16,7.2,1.53,8.55,5.85,1.82-1.13,2.94-.85,4,1,.1-2.99,5.01-4.04,6-1,3.12-2.06,5.79-2.73,8-2,2.02-2.02,4.35-1.69,7,1,1-2.67,3.06-2.66,4,0,6.37-4.81,9.83-10.54-1.35-8.43-3.25-2.64,6.65-5.09,9.35-4.57,2.17-.54,3.98-.63,6-1h2c9.01-.07,17.89.7,26.64,2.33l11.36-1.33c.33,0,.67,0,1,0,3.57-.79,7.23-.79,11,0,1.67.28,3.29.73,5,1,6.08.59,12.08.59,18,0,2.56-.16,3.9.5,4,2,4.89.03,6.6,1.5,5.15,4.39l1.15,1.97c-2.59,3.94-3.47,5.99,1.9,3.16l1.8,1.48c.47-4.02,7.95-3.4,10-1,3.67-.08,7.48.48,11.09-.47,1.09-.62.29-9.13,1.04-10.39,1.3-2.18,11.43-.15,13.88-1.62,1.06-.63,2.76-6.09,2.98-7.52.11-.71.44-1.05,1-1,1.33-2.21,1.85-4.63,2.37-7.11,4.45-.98,9-1.61,13.63-1.89.86-.32,1.53-.83,2-1,7.94.19,12.61-2.81,14-9,1.84-2.25,2.63-3.41,4-6,1.37-2.51,3.04-4.51,5-6,11.58-14.83,25.58-26.05,33-44,2.8-3.9,4.46-8.57,5-14,2.04-5.3,4.05-10.66,6-16,3.38-5.93,6.98-13.38,4-18,.39-3.25.77-6.74,1-10-.04-8.39.29-16.72,1-25-.03-9.12-.21-18.26-.53-27.41.91-12.71,16.02-5.52,7.79,2.93-.26.69,2.85,10.24,6.46,7.51,2.24,3.36,5.06,6.22,8.45,8.57.16,4.68.51,4.15,1.03-1.6l4.18-5.38c-8.03-4.09-19.43-11.33-11.1-21.53-4.06-2.68-6.74-6.21-8.04-10.58-8.34,11.26-12.13,8.83-11.7-4.69.1-3.25.47-6.67,2.23-9.45,8.31-8.47,15.99-19.57,7.48-30.75-1.11-5.67-2.52-10.55-4.24-14.62-.06-.66.04-1.34,0-2-.41-5.09-.74-10.09-1-15,.08-3.11-.43-7.14,0-10l1.95-2.37c.99-5.66,3.07-7.92,6.23-6.77,4.56,7.48,10.17,4.57,16.43.47-5.18-7.79-9.69-15.12,1.17-20.33l2.22,1Z"/>
  <path class="cls-14" d="M1878,579c-3.08,1.93-7.15,2.46-8.55,6.94-2.1,6.7,2.61,9.47,2.34,12.4-.53,5.69-15.83,9.67-13.13,20.48.6,2.4,4.2,5.35,4.1,6.69-.09,1.08-6.2,5.21-6.81,9.94-1.75,13.7,14.63,13.13,16.56,16.52.87,1.52.16,3.72.73,5.27.69,1.87,2.65,3.15,2.77,5.33.08,1.41-4.47,10.57-5.18,13.76-2.01,9.04-2.66,21.7-.41,30.71.77,3.08,5.6,10.8,5.6,11.43.01,3.03-3.61,3.58-5.04,4.51-2.62,1.7-7.04,3.26-7.09,7.48-.04,3.87,7.27,11.66,6.04,13.47-2.83-.34-9.19,5.09-10.43,5.07-.4,0-7.16-2.33-7.5-2.54-1-.6-1.73-3.4-2.51-3.45-4.07-.23-.87,8.1-6.51,7.97.76-5.05,5.29-12.66,6.75-17.75,2.56-8.94,3.32-18.99,3.25-27.76-.07-8.7.07-18.32-1.08-26.91-.76-5.68-4.05-11.58-3.45-18.12.32-3.53,4.98-5.87,2.42-9.86-1.18-1.84-4.15-1.3-2.89-5.6,3.33-.48,2.11,3.41,4.2,4.34,2.3,1.01,5.33.62,7.79.65-.7-3.93-4.48-3.39-6.24-6.25-2.43-3.94-.94-7.81-1.73-11.05-.27-1.11-2.64-1.07-2.91-2.24-.21-.94.96-2.67.93-4-.15-6.62-12.31-9.53-7.8-14.2,2.83-2.94,4.32,2.19,6.23,1.75,4-4.83,2.5-9.9,10.51-7.01-1.53-5.6.26-8.54,3.6-12.9.96-1.25,3.29-1.79,3.92-3.08,1.08-2.21.04-4.58,2.13-7.76,1.89-2.87,6.22-4.32,9.36-5.25.6.3.58.63,0,1Z"/>
  <path class="cls-40" d="M982,1044l8.96-.47c3.23-1.99,6.88-2.31,10.93-.97,3.95-1.94,7.5-1.85,11.76-1.19,7.3-4.86,13.06.3,11.51,8.45l1.32,1.13,13.78-2.51,4.45,3.1c2.87-.41,4.63.39,5.28,2.42,3.78-.86,6.45-.17,8.01,2.05.13,0,.85,1.29,2.23.89,3.65-1.06,2.37-6.41,12.77-6.89l6,1c3.24.43,5.16,1.06,9,1,10.08.91,20.08.26,30-2,.33-.03.67.03,1,0,2.7-1.68,5.37-2.68,8-3,.5.29,2.07,1.41,3,2,2.8.99,5.47,2.33,8,4,2.52.57,3.38.71,6,1h7c3.7-.84,6.12-1.43,10-2,1.59.7,3.44.88,5,0,.33-.05.67.04,1,0l5-1c3.02-.3,5.99-.74,9-1,3.35-.79,6.79-.06,10,1,.32.05.67-.04,1,0,9.23,4.52-2.5,5.48-7.48,5.16,4.75,2.2,9.96,2.1,12.27-3.12l12.21-1.03c.33,0,.67,0,1,0,3.43,1.21,7.05,1.88,10.68,1.32,1.64-5.87,9.19-4.91,14.17-4.23,1.59-1.8,4.69-2.19,7.15-2.1,7.9.46,9.53,1.52,16,6,2.11-.08,3.94-1.06,5.5-2.95l3.5-.05c1.82.46,4.29,1.28,6,2,1.32.71,2.28,1.69,3,3,2.91,4.65,4.02-.93,7.26-2.24,7.21-2.94,28.9.68,37.74,1.24,1.8.79,1.73,1.63.91,3.11,8.93-4.14,14.47-3.57,16.62,1.7l2.47,1.19c13.66,8.3,7.54,2.26,14.49-4.01,7.6-6.86,9.33-.6,14.51,4.01,2.31,1.48,4.2,2.16,7,2,1.86.79,6.55,4.04,7.53,4.04,2.08,0,2.93-3.69,5.47-5.04,2.79.02,8.83-.1,7.75-3.55,4.31-.84,8.93-1.01,13.86-.52,4.6-5.2,5.8-5.45,11.94-2.16l2.4-1.29c4.16,1.49,6,2.05,9.05-1.48,5.68-1.8,6.05-2.93,13-3,1.51.74,3.18.74,5,0,3.36-.47,7.6-.41,11-1l3.59-.28c4.59-3.74,10.26-5.91,11.42,1.21,4-.4,7.66-.05,10.99,1.07,1.11.93,2.83,3.41,3,5-3.49-2.59-5.45-4.93-10.46-3.99-4.33.81-5.11,7.45-8.99,7.05-3.26-.34-5.64-6.86-15.02-5.03-6.9,1.35-5.38,12.11-12.26,12.74-5.14.47-7.92-2.76-11.04-3.49-13.28-3.11-26.19-1.94-39.43,1.03-3.26.73-8.88,3.84-11.32,3.79-2.18-.04-3.31-1.77-5.02-2.05-2.68-.43-6.04.66-8.46-.53-2.25-1.1-4.67-8.43-10.5-8.44-6.42,0-6.19,9.07-9.18,9.77-1.87.44-7.15-1.62-9.83-1.83-11.12-.85-20.48,4.29-29.95,4.03-4.29-.12-10.54-4.52-16.02-5.05-7.64-.74-25.64,6.58-21.52-4.99-3.85-1.92-13.23,2.58-15.33,1.9-2.9-.95-3.75-11.74-13.18-11.43-6.13.21-9.46,9.63-12.19,10.39-2.32.65-8.5-1.82-11.78-1.93-12.33-.4-8.87,8.54-11.17,9.1-8.32,2.04-17.72-5.52-25.8-6.11-4.51-.33-11.08,1.41-15.56,2.55-4.15,1.06-18.68,7.71-21.03,6.06-1.83-1.29-2.35-7.93-8.42-8.61-7.91-.88-9.66,5.79-13.08,6.12-2.92.29-5.29-4.14-8.72-5.28-10.68-3.54-14.45,7.32-19.23,7.33-2.73,0-6.84-5.06-11.24-5.87s-8.63.29-12.7-.3c-3.09-.45-6.14-2.58-10.07-2.92-7.63-.66-14.86,1.61-21.49,4.98q-2.04-1.46,0,0c-.43.22-1.72,3.92-3.53,1.03s1.74-7.27-3.55-10.45c-6.46-3.88-9.51,1.01-12.22.3-2.52-.65-4.06-7.94-11.18-8-6.44-.05-9.42,5.94-12.06,6.16-3.17.26-10.21-6.02-15.98-5.87-9.39.23-13.2,16.76-17.17,17.66-.72.16-13.01-.71-14.72-.93-2.23-.29-2.87-.9-4.58-1.91h1c1.07-2.48,1.93-2.48,3,0,.11,0,.69,1.37,1.95.59,1.84-1.14,2.67-5.2,5.73-5.45,2.13-.18,2.42,2.09,3.32,2.86.87,1.96,2.21,2.96,4,3,.52-.37,1.67-1.5,2-2-2.25-2.01,1.02-8.11,4-7,2.08-2.91,6.13-9.53,9-10Z"/>
  <path class="cls-5" d="M1878,579v-1c2.69-3.03-2.65-8.92-2.75-9.48-.32-1.71.2-4.78-.25-6.52-2.42-2.29-3.92-3.93-4.65-7.39-11.95,12.38-14.07-13.74-13.45-21.78,1.66-9.98,2.76-19.68-.83-29.23-1.02-6.19,1.43-11.94,7.36-17.24-.1-7.76,3.41-9.02,6.63-1.38-.35-5.07.5-9.01,4.94-11.98,3.26-10.02-1.87-7.22-7.57-9.93-8.21-3.9-10.24-7.98-4.43-15.07-1.96,6.15-1.84,9.26,3.78,12.72,3.18,1.96,11.04,2.81,11.29,5.79.19,2.31-3.86,11.84-4.1,16.94-.12,2.58-.06,5.23.3,7.79.41,2.98,3.98,10.63,3.61,12.05-.51,1.98-5.91,5.39-7.28,7.79-5.48,9.57,5.43,11.03,6.42,16.46.69,3.81-1.72,10.75-1.99,14.97-.71,11.17,1.28,23.66,5.89,33.86-.56,1.34-1.77,1.92-2.9,2.63Z"/>
  <path class="cls-39" d="M990,11c.38.27.73.62,1,1,.61.88.82,1.97,1,3-.75-.46-10.33-.66-2-4Z"/>
  <path class="cls-1" d="M891.79,91.77c.45-.28.55-1.82,1.19-2.24,1.72-1.12,14.72-.43,18.38-.4,21.46.17,42.82.47,64.14,1.86,4.38.28,15.78-1.16,18.47,1.53,1.06,1.06,1.08,3.01,1.99,4.01,4.2,4.54,9.47,3.96,14.56,6.46l-1.5,5.97c3.53,2.74,7.39-.66,9.05-.52,2.05.18,2.23,3.06,3.56,3.47,1.97.61,4.03-1.1,5.85-.93,2,.18,2.7,2.37,4.21,2.83,5.66,1.72,18.07.53,21.6,1.36,1.29.3,2.79,2.77,5.45,3.59,16.31,5.03,31.85,1.1,47.8,1.2,12.4.07,19.09,1.57,31.92.02,10.94-1.33,25.38-.06,37.02-.98,19.92-1.57,39.44-6.17,59.15-8.85,67.06-9.1,128.85-5.98,194.94,3.78,13.07,1.93,26.2,3.44,39.22,5.76,2.45.59.16,4.09,2.18,5.84.32.28,7.31,2.83,7.91,2.92,2.16.34,4.17-.89,7.21-.03,2.26.64,2.02,2.84,3.56,3.39,4.74,1.69,10.32-.74,13.8,5.28,1.09,1.89-.52,4.25,3.22,4.81,1.82.27,1.06-2.24,4.04-2.7,9.26-1.44,9.21,6.32,10.85,6.8,2,.59,4.36-2.81,5.42-1.99,1.43,1.1-.49,7.41,8.01,2.99-.19,9.1,4.12,2.3,7.3,3.13,1.85.48,6.39,6.84,7.21,6.85l1.51-3.98c1.92,1.7,8.7,1.39,9.38,1.88.47.34,2.81,9.38,4.54,10.7.75.57,3.08-1.34,5.06-.12.78.48,2.12,3.34,3.46,4.59,7.21,6.68,8.54-.06,12.06-.06,1.86,0,3.39,2.98,5.46,3.62s3.79-.41,5.15-.1,2.83,2.34,3.39,2.34c.72,0,1.8-2.69,3.94-2.81,2.74-.15,7.95,3.54,10.22,3.74,2.52.22,3.51-3.07,7.54-2.61,7.32.85,3.41,5.47,3.79,5.82.93.86,7.58-2.8,9.72-2.77s3.72,3.67,6.87,3.8c2.54.11,3.86-2.74,6.69-1.89.34.1,5.14,3.89,5.66,4.43,1.12,1.15,1.12,3.37,2.02,3.98,1.24.83,3.53.11,5.02.98,4.04,2.35,20.19,21.58,23.01,25.99,50.34,78.86,60.71,182.34,62.96,274.04,1.92,78.18,4.44,164,1.03,241.95-.28,6.42-2.35,34.83-4.93,38.82-.65,1.01-2.86,1.36-3.06,2.22-.24,1.04,2.04,2.45,1.99,4.82-.11,4.82-4.51,12.75-4.87,18.07-3.3,2.9-11-2.44-11.62-2.41-2.07.11-1.28,5.75-1.5,5.98-1.16,1.24-7.26-.72-4.49-5.05.29-.45,4.37-1.67,2.47-3.91-1.1-1.3-5.73,1.4-5.05-7.58.38-4.97,3.56-5.09,6.46-8.46s-5.38-1.9-6.32-4.61c-1.16-3.34,2.73-5.05,2.71-5.87,0-.19-1.74-3.29-1.89-3.41-.27-.2-3.66,1.65-4.83.84-1.63-2.77.51-5.69-.2-8.23-.45-1.62-3.27-2.91-4.19-5.88s-.71-5.82-.66-8.84c-2.91-.47-5.62,1.11-8.45,1.04-9.83-.26-20.31-3.63-31.01-4.07-18.61-.77-43.45-.04-53.97,18.11-2.25,3.88-6.96,16.66-8.13,20.9-.38,1.35.74,3.02.12,4.03-3.29,5.34-10.28,1.3-7.56-4.99-3.52-.72-.99,2.79-2.98,4.51-4.67,4.03-9.15-1.16-11.52-1.15-1.22,0-3.22,1.7-5.99,1.73-3.02.03-6.61-2.25-7.92-2.15-.76.06-6.38,11.12-7.59-3.93-.48-.33-6.63.8-6.88,1.1-.63.74-.43,17.46-.07,19.35.56,2.97,3.67,5.5,3.63,10.23-.02,2.11-1.41,3.64-1.37,5.64.05,2.45,2.02,5.12,1.7,8.09-.19,1.8-1.93,3.35-1.8,4.92.08.95,9.21,14.61,10.28,15.68,1.58,1.6,3.96.61,5.8,1.2s3.24,3.43,5.22,3.44c3.22.01,3.5-5.45,6.99-4.65,2.45,1.59-.94,4.94,2.16,5.92,2.6.82,8.65-3.13,11.86,1.07.62-3.19-2.84-7.47,2.81-6.01,1,.26.95,2.42,2.3,2.87,2.16.73,5.38-.6,7.4.63,1.31.8,3.01,6.78,6.02,8.06,2.51,1.07,4.8-1.77,6.51.46.51.66-.29,3.34.62,5.24,1.43,2.95,5.23,3.97,3.82,8.76-5.23.4-6.62-.43-8.5-4.99-2.61,2.52.1,10.9,3.77,9.83,1.73-.51,3.5-4.11,4.73.65-1.17,2.41-5.03.94-5.87,1.64-.26.22-2.05,5.91-2.12,6.47-.47,4.27,2.06,8.4-1.01,13.39l7,1.01c.96,2.8-4.98,4.88-5.05,5.58-.35,3.9,6.01,7.34,6.07,11.41,1.77.08,2.12.5,2-1.49-.33-5.21-3.89-9.26,4.99-8.52.99,3.35-1.16,7.71-.97,10.46.13,1.89,1.86,3.56,2.04,6.06.23,3.08-3.91,18.71-6.06,20.04s-4.58-1.16-6.98-.1c-3.58,1.59-12.62,14.01-15.72,14.33-2.16.22-5.2-3.57-9.36-.27-1.58,1.26.17,2.95-.44,4.44-.34.84-1.84,1.63-2.4,2.68-.69,1.3-.82,3.5-1.34,4.12-.25.3-6.85,3.13-7.24,3.15-1.84.09-4.68-2.2-5.56-1.5-1.94,1.53-1.41,7.72-4.19,8.92-6.21,2.67-4.74-3.45-8.28-2.35-.74.23-1.27,3.67-2.97,5.06-4.64,3.8-8.69,2.05-13.08,2.42-1.35.11-4.36,2.4-5.45,1.53-.34-.27,1.84-3-.52-4-7.3,2.07-10.09,9.85-18.77,7.8-2.13-.5-3.94-3.22-6.12-2.88-.8.12-.98,2.26-2.01,3.11-4.21,3.5-7.35.62-10.99.96-41.17,3.87-83.67,1.37-125.08.2-49.83-1.41-99.46-1.82-148.73-11.46-38.23-7.48-77.7-19.94-115.54-26.46-38.6-6.65-73.48-.28-111.69,1.77-56.19,3.02-119.76,1.19-174.74,12.26-27.9,5.62-54.53,20.63-82.04,28.96-85.64,25.94-207.56,5.08-295.01-11.51-64.8-12.29-121.1-31.73-180.52-59.48-35.68-16.66-59.75-30.04-80.24-65.76-27.46-47.87-41.36-105.28-42.13-160.13-1.22-86.7,12.13-172.97,10.17-259.85.88-4.48,6.45-3.67,9.96-5.04,5.19-2.03,4.57-3.19,6.58-7.41.47-.98,2.17-1.84,2.33-2.72.19-1.09-1.66-2.43-1.91-3.93-.49-2.95,1.39-6.39,1.07-9.93-.7-7.7-5.73-13.41-8.33-20.23l-15.6-8.9c-.03-5.46-1.25-11.47-1.2-16.86.38-42.93,35.45-111.31,69.16-137.92,46.99-37.11,106.88-46.7,162.92-63.08,14.3-4.18,28.56-9.89,43-14,55.61-15.8,115.31-20.6,172.77-30.23,39.18-6.56,78.25-13.31,117.83-16.18,4.73-.34,15.89.34,19.77-.34,1.63-.29,6.08-5.54,8.57-6.34,4.63-1.48,7.49,2.03,10.31,1.4,1.25-.28,2.38-2.01,3.74-2.43,1.53-.48,3.25.53,4.06.08.74-.42.63-2.6,2.78-2.97,3.62-.62,6.85,2.92,9.92,3.32,2.66.34,4.94-1.22,7.65-.82s13.55,3.35,16.85,4.23c2.97.79,4.52,4.2,9.21,4.78,5.68.71,9.02-2.01,11.03-2.01,1.3,0,2.52,1.76,4.05,1.96,1.94.25,13.78,1.25,14.91,1.06,3.41-.56,2.3-1.77,9.05-2.22,8.1-.55,18.48-3.56,25.01-3.88,3.52-.17,9.48,3.59,12.29,1.84Z"/>
  <path class="cls-39" d="M1585,9c1.43,4.63-6.08,3.71-6.94,6.63s3.83,4.93,3.92,5.87c.24,2.46-7.87-1.6-6.97,3.49,2.89-1.66,7.5.25,9.3-.15,2.33-.51,3.34-4.31,3.89-4.62,4.19-2.41,1.89,2.12,2.28,2.82,2.25,4.09,19.52.55,20.54,1.97.15.21-1.3,3.82.99,4.98-.47.07-.89.52-1,1-.34,2.67-1.17,2.53-2,0-3.61-.52-4.2-2.11-6.72-2.78-7.08-1.9-13.12.66-19.74.82-21.19.52-42.15-1.59-63.03-.03-11.36.85-24.13,4.6-35.03,4.99-42.72,1.53-81.59-3.39-125.12.86-20.41,1.99-40.25.55-59.84,2.16-10.19.83-21.89,5.86-32.07,6.02-33.26.53-61.82-1.43-94.95-4.03-39.1-3.07-70.57,9.29-108,10-32.38.61-66.47-9.17-100.04-7.04-22.82,1.45-48.2,11.62-71.06,14.94-47.42,6.89-97.81-11.38-144.62-19.18-33.96-5.66-79.61-15.65-113.31-9.74-1.08.19-11.73,7.73-16.2,8.79-19.85,4.68-49.55,10.67-69.73,12.27-18.48,1.46-27.39-4.48-43.05-6.03-9.58-.95-21.5.14-30.94-1.06-20.99-2.69-37.96-12.98-61.1-11.98-10.86.47-20.64,5.08-29.13,5.82-1.41.12-3.52-1.58-5.8-1.81-18.89-1.97-50.56,4.75-70.99,6.07-34.35,2.23-72.03-10.48-104.58-.59-2.69.82-8.22,4.47-10.95,6.05l8.99-1.5v3.97s-12.3,2.22-12.3,2.22c-20.33,9.53-43.6,16.74-63.41,28.59-1.2.72-4.41,3.17-4.82,4.23-.59,1.5.68,2.87.36,4.27-.87,3.77-8.45,8.47-10.87,11.17-3.69,4.11-18.71,24.83-23.46,24.52-2.78-2.49,1.19-7.03-4.99-7.07-3.93-.02-3.99,2.2-4.5,5.1-2-1.51-2.28-3.83-3-6q2.16-.47,0,0c-.22-.65-1.68-1.3-.99-3,2.51,1.46,14.85.44,15.86-1.14.51-.8.29-5.91-.07-7.16-.64-2.19-4.14-2.95-3.79-5.69,1.98-.69,4.35,3.49,6.01,2.55,1.93-1.1,3.32-11.75,4.04-12.48,1-1.01,7.95.99,10.62.2,7.08-2.08,14.08-11.53,18.58-13.51,16.61-7.31,34-13.51,50.42-21.58,6.79-3.33,13.17-11.39,19.31-13.69,33.45-12.57,74.91,1.11,109.49-1.51,25.87-1.96,51.97-5.4,78.01-6.99,16.58-1.01,32.58-5.26,49.74-2.74,13.64,2,28.15,8.66,42.39,10.61,4.43.61,33.8,2.91,35.45,1.7,1.24-.91.52-3.24,1.18-4.32.39-.62,2.09-.79,2.81-1.69,1.59-1.99-.29-4.93,5.27-3.6,2.24.54,1.51,10.9,2.78,11.92.53.43,12.73,2.22,13.4,2.14,2.8-.33,3.26-4.96,5.96-7.05,1.72-1.33,5.16-1.93,5.35-2.16.37-.43,2.39-9.53,4.82-9.9,4.64-.72,9.37,5.88,9.95,6.03,1.01.25,6.39-3.5,8.33-1.86.52.44.55,6.43,2.01,7.49,2.66,1.94,6.16-1.91,7.52-1.56,1.05.27,1.21,2.49,1.72,2.8,1.23.76,14.79-3.84,17.57-4.57,9.61-2.52,16.18-5.59,24.81-8.19,5.78-1.74,10.42-.41,15.9-1.1s15.68-6.52,20.92-4.78c1.57.52,1.3,3.62,5.22,3.81,4.32.21,11.84-1.2,15.87-.95,1.62.1,3.2,1.57,5.15,1.87,32.64,5.11,65.06,9.98,97.65,15.35,2.94.48,6.73,2.5,10.4,2.65,8.36.36,5.56-2,14.1,1.89,3.46,1.58,2.11.68,5.24,2.73,1.79,1.17,14.67.02,17.64-.2s5.11,2.8,4.37-2.31c-3.62,2.35-7.42-.02-7.99-3.99,2.1-1.37,14.91-6.67,14.98-7.51.03-.37-4.46-5.57.53-5.54,1.23,0,4.26,2.71,4.43,3.67.26,1.55-2.18,2.45-2.74,4.08-1.06,3.08,1.66,5.26-3.49,4.08-2.29-.52-3.96-3.49-4.74.71-.67,3.63,1.86,2.4,4.3,3.71,5.08,2.73,5.26,1.2,7.7,2.24s4.97,6.71,6.73,7.36c1.36.5,9.96,2,11.83,2.15,4.9.4,26.77-2.04,31.69-3.25,3.95-.97,7.41-3.56,10.57-4.43,7.16-1.97,15.59-1.16,23.45-3.55,3.92-1.19,10.74-5.7,14.28-5.8,15.02-.45,31.2.27,46.04,1.02,3.75.19,9.87,1.02,13,.92,2.46-.08,5.1-3.06,6.81-2.71,1.38.28,2.28,3.08,4.01,2.79,1.58-.26,3.06-4.52,5.63-3.93.08,2.53-.04,5.9,2.92,6.56,13.56.58,26.99,2.86,40.58,2.43,33.54-1.06,66.03-12.17,99-9.98,15.69,1.04,31.2,5.06,46.97,5.03,2.28,0,6.53-.58,5.56-3.54-.18-.55-10.86-4.56-8.01-7.49,1.14-1.17,5.35,2.27,6.47,2,1.43-.34,1.25-3.5,1.65-3.86s5.79.31,9.87-2.14c1.72-1.04,3.18-4.17,5-2,.04,4.19,1.46,8.2,4.24,12.01-1.26,3.01.08,4.63,4.02,4.87,18.02-.07,35.67-2.97,53.3-6.69,28.45.21,56.34-1.98,84.08-7.45,7.39.38,14.8.46,22.23.25,3.5,1.41,7.29,1.69,11.37.81,15.77,2.07,31.38,2.53,46.84,1.39,1.88-6.42,5.5-3.52,9.2-.49,4.04-1.04,8.66-.59,13.84,1.37l23.99-4.55c10.58,1.63,21.48.18,32.03-1.55,1.58.51,32.42.54,31.3-3.38-2.58-2.38-3.5-7.43-.45-9.58,2.33-.6,2.7.03,4,0,3.44,2.29,5.84,1.38,9-1,.69-.19,1.08-1.29,3-1Z"/>
  <path class="cls-29" d="M1817.53,381.01c6.03-1.81,5.93,13.85,6.72,17.24,3.26,14.04,10.3,28.01,11.62,42.38,1.37,14.89-1.31,30.38-.86,44.87,1.01,31.92,16.34,59.07,10.72,91.73-1.83,10.63-8.44,29.76-13.98,39.02-3.04,5.08-5.21,2.47-4.69-2.65,1.36-13.34,10.97-29.62,12.69-44.35,3.15-26.92-10.35-53.67-11.79-80.7-1.09-20.48,3.54-39.2-1.22-59.78-2.98-12.88-12.3-31.38-10.78-44.32.14-1.19.21-3.03,1.58-3.44Z"/>
  <path class="cls-4" d="M1789.62,87.08c1.2-.39,2.27-.09,3.37.43,7.2,3.36,26.73,38.9,30.49,47.52,23.32,53.52-4.81,86.94.56,140.45.52,5.19,2.99,12.36,3.01,17.08.02,4.26-3.84,4.62-5.5,1.41-1.55-3.01-4.3-22.11-4.58-26.42-2.47-38.37,15.3-75.81,6.32-111.32-5.79-22.92-18.84-46.86-34.78-64.23-.93-1.52-.91-4.26,1.12-4.91Z"/>
  <path class="cls-20" d="M125.35,982.65c9.97,10.45,27.12,20.86,39.97,27.53,1.04.54,21.9,8.73,11.19,9.85-8.24.86-39.43-18.43-46.53-24.52-44.35-38.02-29.41-75.36-39.24-124.76-1.08-5.42-4.9-13.51-5.33-18.73-.68-8.31,7.17,2.87,8.32,5.74,15.91,39.69-2.58,89.05,31.62,124.88Z"/>
  <path class="cls-12" d="M813,1025c-24.78,6.02-61.87,16.07-87,12-11.8-2.22-2.31-5.74,6.51-5.79,31.69-1.76,62.9-6.93,93.65-15.5,25.19-4.98,54.52-8.46,79.76-4.3,7.56,1.25,19.46,5.89,3.93,6.55-32.82-3.44-64.97-1.16-96.86,7.04Z"/>
  <path class="cls-10" d="M120.67,92.15c3.18-.86,4.16,2.35,2.55,4.56-26.17,27.62-42.95,50.9-47.09,89.92-.65,6.16-.27,29.26-3.04,32.95-2.23,2.97-4.71,1.62-5.13-2.03-2.85-24.52,4.9-64.91,18.22-85.87,3.51-5.53,30.48-38.44,34.49-39.53Z"/>
  <path class="cls-24" d="M1779,1009c-10.76,9.12-44.83,24.95-58.51,24.08-7.39-.47-2.69-4.93,2.72-6.38,38.81-10.37,60.76-22.95,77.99-61.01,2.33-5.15,9.07-26.93,11.72-29.28,2.31-2.03,5.4-2.17,4.68,1.62-4.38,22.74-20.78,55.85-38.59,70.97Z"/>
  <path class="cls-6" d="M60.02,731c-5.01-3.26,4.47-49.33,5.02-57.46.61-8.91.22-20.01,0-29.08-.17-6.84-2.37-17.43-2-23.91.09-1.5,1.57-4.94,3.44-4.55,2.91.62,4.07,13.31,4.51,16.5,4.3,30.86-.14,63.15-6.44,93.54-.35,1.69-1.42,6.97-4.53,4.95Z"/>
  <path class="cls-23" d="M1611,31c36.11,2.57,81.52,4.37,115.76,15.74,4.21,1.4,24,9.51,25.76,12.24,3.72,5.77-10.92.14-12.52-.48-10.9-4.26-18.72-8.62-30.78-11.22-31.65-6.83-66.45-7.53-98.67-11.33-2.95-.73-5.47-3.29-1.56-4.94.63.09,1.35-.05,2,0Z"/>
  <path class="cls-2" d="M1163,1033c3.66,1.42,1.53,4.34-1.54,4.96-39.11,7.98-79.23,3.57-117.46-5.96l-10.97-1.94c-4.76-1.45-9.05-3.25-2.59-5.65l49.06,8.04c29.5,3.94,55.01,3.04,83.49.55Z"/>
  <path class="cls-27" d="M75.51,303.01c3.54-.44,3.41,1.82,3.57,4.47.68,11.36-4.98,27.11-6.07,39.03s-.45,26.02,1.12,37.86c.6,4.55,4.66,19.04,3.76,21.96-1.34,4.34-4.48.61-5.67-2.05-13.42-30.22-4.71-67.27,1.77-97.8.29-1.35-.01-2.62,1.52-3.48Z"/>
  <path class="cls-35" d="M1822.61,770.05c6.37-1.08,1.6,16.33,1.4,19.46-.8,12.92-1.46,28.15-1.05,41.03.11,3.61,3.77,13.12-2.45,12.52-2.29-.22-4.16-9.16-4.42-11.64-1.73-16.05-.67-38.88,3.22-54.62.45-1.82,1.06-6.37,3.31-6.75Z"/>
  <path class="cls-32" d="M1541,1038c16.1.06,32.07-2.73,47.33-2.62,3.04.02,10.77.22,6.67,3.62-15.4,3.72-30.65,5.39-46.56,5.16-3.46-.05-50.97-2.53-52.56-6.13-1.15-2.61,4.06-2.91,6.01-2.87l39.1,2.84Z"/>
  <path class="cls-3" d="M354.8,53.3c1.62-.11,17.31-1.03,11.19,3.19-2.85,1.97-24.72,5.03-29.49,5.51-11.75,1.16-30.57,2.34-42.01,1.02-5.17-.6-8.21-5.08-2.98-6.02,7.36-1.32,19.74.4,27.99-.01,11.77-.59,23.59-2.93,35.31-3.69Z"/>
  <path class="cls-22" d="M193,55.99c-.21-1.71-.16-2.22,1.02-3.47,2.65-2.83,21.08-7.57,25.71-8.29,16.86-2.63,36.19.23,51.26,8.28.31,1.33-.9,2.26-2.24,2.29-5.12.13-13.98-3.62-19.53-4.53-11.86-1.96-22.72-1.27-34.45,1-3.46.67-20.12,6.34-21.77,4.72Z"/>
  <path class="cls-1" d="M726,1037c-7.93.35-9.35-3.96-1.05-5.55,12.35-2.37,28.36-1.6,41.45-3.55,49.22-7.31,89.55-25.27,142.05-16.84,1.36.22,8.06,2.3,9.11,2.9,1.7.97,2.91,3.96,1.34,4.95-2.21,1.38-26.52-1.78-31.34-1.95-24.87-.85-50.27,3.27-74.54,8.04,16.71-4.06,31.74-8,49.51-8.99,17.31-.96,34.57,1.37,51.85.85,2.62-1.52,1.5-1.96-.88-2.85-14.96-5.56-55.22-3.07-71.84-.88-25.03,3.31-49.39,12.08-74.27,15.73-14.8,2.17-29.88,2.21-44.69,4.31l-1.66,1.32c0,.52,4.3,2.39,4.98,2.5Z"/>
  <path class="cls-38" d="M448,1038c.67,0,1.33,0,2,0,11.98.53,24.13.6,36.46.22,2.68.18,6.04.46,4.54,3.78-4.21,4.2-32.46,3.4-39.54,3.04-8.03-.41-25.21-1.87-32.46-4.04-4.36-2.15.09-4.1,3.35-4.25,8.53-.39,17.15.02,25.65,1.25Z"/>
  <path class="cls-33" d="M1628,52.01c1.17-1.44,18.51-.33,21.49,0,11.9,1.33,34.17,6.93,43.46,14.53,3.01,2.46,2.75,5.96-.99,5.02-2.93-.74-8.09-4.38-11.42-5.6-16.56-6.08-33.22-9.09-50.87-10.13-1.55-.14-2.25-3.1-1.67-3.83Z"/>
  <path class="cls-1" d="M1070,61c-.88-4.86,2.39-5.57,6.51-5.99,31.75-3.22,83.46.08,115.98,3.02,4.16.38,14.67,3.16,6.75,6.71s-26.43-.36-35.69-.77c-31.18-1.4-62.47-.12-93.54-2.96Z"/>
  <path class="cls-26" d="M1258,1028c.66,1.11,1.08,1.34.11,2.52-3.59,4.34-21.27,2.08-27.6,2.49-8.69.57-18.29,2.71-26.97,3.03-2.68.1-7.74.64-9.54-1.04-.6-2.95,1.62-4.12,4.35-4.58,9.57-1.59,51.09-5.86,57.99-3.41.59.21,1.14.58,1.66.99Z"/>
  <path class="cls-1" d="M1541,1038c-14.2-.05-28.22-1.22-42.41-2.01-1.04-.05-.71,2.65-.53,2.94.49.79,16,2.83,18.45,3.06,16.04,1.55,33.97,2.41,49.98,1,9.54-.84,18.96-3.22,28.51-3.99-6.38,2.33-15.76,4.2-22.62,4.88-30.33,3.02-54.3-2.79-83.38-4.88-.33-.02-.67.02-1,0-6.1-.15-12.1-.82-18-2-.33-.03-.67.03-1,0-.15-.01-1.11-.91-2.41-1.05-6.23-.64-13.73.34-19.59-1.95q1.24-2.65,0,0c-2.63-1.03-5.12-3.43-2.05-5.55,1.21-.84,12.16-.63,14.59-.49,7.61.44,20.47,1.79,27.9,3.1,5.13.91,7.43,6.13,13.96,3.03l39.6,3.91Z"/>
  <path class="cls-1" d="M313.82,1029.23c3.96.98,28.22-.47,27.13,6.15-.74,4.47-8.04,1.68-10.46,1.62-10.63-.24-21.17-.6-31.78-1.22-8.79-8.25,10.49-4.73,15.11-6.56Z"/>
  <path class="cls-1" d="M597.79,1031.29c13.61-.72,23.67.89,36.72,1.7,8.3.51,20.84-1.65,28.05,1.95,4.72,2.36,2.09,5.56-2.01,6.11-15.25,2.04-36.2-1.69-52.01-2.09-4.41-.11-33.74,2.31-34.54-1.47-1.21-5.75,19.9-5.98,23.79-6.19Z"/>
  <path class="cls-1" d="M258.96,1033.06c2.12,3.3-5.08,4.59-7.56,4.83-6.07.57-22.36-1.48-27.85-3.93-1.1-.49-2.93-.61-2.54-2.44,1.9-2.89,4.38-2.65,7.52-2.57,6.19.16,16.5,1.36,22.87,2.16,1.14.14,7.35,1.63,7.56,1.95Z"/>
  <path class="cls-31" d="M75.51,527c4.72-1.09,4.77,16.64,4.52,19.53s-1.54,11.48-5.53,11.51c-3.53.02-2.64-6.92-2.54-9.59.16-4.45.48-12.92,1.1-16.89.19-1.24,1.34-4.3,2.45-4.56Z"/>
  <path class="cls-1" d="M1310,1034h-24.5c-2.05,0-4.32-6.23,3.94-7.06,5.91-.6,23.29-2.22,20.56,7.06Z"/>
  <path class="cls-1" d="M1280.75,55.26c3.29-.4,11.61-.56,8.8,4.74-1.77,3.33-17.42,4.97-20.54,3.49-9-4.26,8.93-7.89,11.74-8.23Z"/>
  <path class="cls-1" d="M1243.8,58.3c2.42-.13,5.4-1.21,7.29,1.11,6.64,8.15-16.19,7.71-17.66,5.67-4.16-5.79,7.3-6.61,10.37-6.77Z"/>
  <path class="cls-25" d="M80.53,793.01c5.01-1.52,8.15,15.35,6.98,17.95-1.31,2.9-3.9,3.87-6.09,1.1-1.15-1.46-2.66-13.19-2.52-15.57.07-1.23.31-3.08,1.62-3.48Z"/>
  <path class="cls-1" d="M543.82,1033.26c6.35-.36,8.66,4.6,4.12,7.19-11.72,6.7-23.78-6.09-4.12-7.19Z"/>
  <path class="cls-9" d="M1809.69,647.11c7.88-1.95,4.65,24.92-1.77,16.47-1.68-2.21-2.09-15.51,1.77-16.47Z"/>
  <path class="cls-1" d="M1163,1033c-6.43,1.09-13.03.53-19.48,1.02-3.87.29-8.04,1.82-11.98,2.02-35.16,1.78-66.72-5.67-101.03-11.1l-2.49,1.56c3.07,4.1,8.75,2.83,13.1,3.92,1.3.33,2.37,1.45,2.88,1.58-1.31-.11-2.7.16-4,0-.33-.04-.67.05-1,0-2.14-.31-12.52-2.42-13-4.52-.58-2.57,4.55-4.18,6.5-3.57,33.07,5.34,64.16,12.87,98.03,11.12,8.1-.42,18.64-2.06,27.1-2.92,1.64-.17,4.34-.82,5.37.89Z"/>
  <path class="cls-15" d="M68.71,582.11c5.3-1.36,7.69,9.26.74,9.93-5.96.58-5.65-8.68-.74-9.93Z"/>
  <path class="cls-1" d="M491,1042c.02-2.71-1.18-2.8-3.45-3.05-9.43-1.04-22.14.19-32.06.07-1.69-.02-4.45.64-5.49-1.02,11.69,1.49,28.45-2.01,39.5,0,2.49.45,3.53,1.98,1.5,4Z"/>
  <path class="cls-1" d="M1258,1028c-20.34-2.92-40.93,2.04-61.3,3.19l-2.7,3.81c-2.12-1.99-.43-3.79,1.7-4.8,8.93-1.72,17.97-1.46,26.79-2.21,10.46-.89,20.19-3,31.07-2.05,2.55.22,3.02-.33,4.45,2.06Z"/>
  <path class="cls-1" d="M448,1038c-8.31-.03-16.29-.69-24.39-.9-2.1-.06-7.94.61-4.61,3.9-1.14-.34-2.18-.08-2.98-1.5.01-4.31,17.27-3.65,20.47-3.49s8.45.99,11.51,1.99Z"/>
  <path class="cls-36" d="M1724,41.02c2.3,2.42-4.25,2.24-5.48,1.97l-9.51-4.98c2.73-.56,13.46,1.39,15,3.01Z"/>
  <path class="cls-1" d="M1632,874.01c-.87,1.2-1.55,8.69-3.48,7.98-2.34-.86-.58-9.96,3.48-7.98Z"/>
  <path class="cls-1" d="M1623.99,840.01c2.29,2.28-4.12,6.31-4.99,2.48-.55-2.45,4.34-3.13,4.99-2.48Z"/>
  <path class="cls-36" d="M1690,33.01c-.98,2.75-4.35,2.69-5.99.49l5.99-.49Z"/>
  <path class="cls-36" d="M1730.99,43.01c.87,3.22-3.24,2.5-4.99.49l4.99-.49Z"/>
  <path class="cls-1" d="M1627.99,834.01v1.99s-2.99,0-2.99,0c.34-1.45,1.61-2.29,2.99-1.98Z"/>
  <path class="cls-39" d="M1008,18c.41-.15,1.65-3.51,3.48-3,2.05.46,1.86,8.73,7.52,10,.88,4.16-6.24,1.92-4.99,4.49s8.32,1.65,5.94,5.45c-3.16,5.04-21.12-8.62-9.95-9.94l-2-7Z"/>
  <path class="cls-39" d="M696,16.02c3.95-.96,7.63-8.51,11.67-8.88,2.22-.2,8.79,6.23,6.37,10.41-4.09,7.07-7.14,1.41-9.74.65s-6.99,1.15-8.31-2.18Z"/>
  <path class="cls-39" d="M305,12c1.28.23,2.44,3.46,3.63,3.83.64.2,12.45.09,9.36,3.15-.4.4-9.34,2.61-10.99,3.01l-1.49-4.99c-1.85,1.9-3.66,6.7-6.99,5.99-1.9-1.48-1.23-1.15-.69-2.65,1.22-3.39,3-9.1,7.18-8.35Z"/>
  <path class="cls-39" d="M1079,18.99c-1.8,6.13,3.82,7.06,4,12l-12-1c-1.5-4.82,3.39-5.17,4.5-7.03,1.43-2.39-1.18-4.84,3.5-3.98Z"/>
  <path class="cls-39" d="M517,18c.47,2.35.5,12.97-3.99,10-1.45-.96-4.23-13.49,3.99-10Z"/>
  <path class="cls-39" d="M81,76c6.47-2.43,4.56,7.04.5,7.04s-2.23-6.39-.5-7.04Z"/>
  <path class="cls-39" d="M838,18c1.72,19.66-6.28,1.3-5,0h5Z"/>
  <path class="cls-39" d="M1070,18c4.02,3.1-6.99,7.42-6,3,2.38-5.76,2.08-3.01,6-3Z"/>
  <path class="cls-39" d="M31,202.01c3.47-3.15,5.81,7.06,2.5,6.97-1.1-.03-2.77-6.72-2.5-6.97Z"/>
  <path class="cls-39" d="M847.52,41c2.08-.34,3.24,1.08,4.46,2.5-2.2,3.38-8.55.84-4.46-2.5Z"/>
  <path class="cls-39" d="M34.89,188.1c.41.28,1.44,4.51,1.1,4.9-4.83.32-5.19-7.66-1.1-4.9Z"/>
  <path class="cls-39" d="M428.99,8.01c-.01,2.05-6.52,2.32-6.99,1.98,1.18-4.88,3-2.37,6.99-1.98Z"/>
  <path class="cls-39" d="M903.9,36.11c2.4,3.9-4.96,4.38-3.89-1.1.32-.35,3.79.93,3.89,1.1Z"/>
  <path class="cls-39" d="M870.9,29.11c3.14,5.11-6.74,2.05-3.89-1.1.31-.35,3.79.93,3.89,1.1Z"/>
  <path class="cls-39" d="M546.5,19.02c.66,0,3.76,3.25.99,3.97-4.61,1.2-2.94-3.97-.99-3.97Z"/>
  <path class="cls-39" d="M1001,20.99c-2.2.02-5.23.57-6-1.98,2.2-.02,5.23-.57,6,1.98Z"/>
  <path class="cls-39" d="M731,9c1.58,1.58-1.4,4.59-2.99,2.99s1.42-4.57,2.99-2.99Z"/>
  <path class="cls-39" d="M663,11.01c1.07.94-2.03,4.06-2.99,2.99-1.5-1.69,1.28-4.5,2.99-2.99Z"/>
  <path class="cls-39" d="M855.99,38.99c-1.04,1.02-4.01-1.99-2.99-2.99s4.01,1.99,2.99,2.99Z"/>
  <rect class="cls-39" x="38.01" y="191.01" width="2.99" height="1.99"/>
  <path class="cls-39" d="M76.99,89.01v1.99c-1.47.32-2.08-.44-2.99-1.5l2.99-.49Z"/>
  <path class="cls-14" d="M1844,778c3.01-.62,1.71,1.55,2.26,3.19,1.25,3.7,1.94,7.93,3,11.05,1,2.95,4.73,6.59,4.63,10.29-.07,2.57-4.58,12.14-6.26,14.62-1.79,2.64-6.53,6.1-6.97,7.11-2.54,5.81-1.64,12.94.34,18.75,5.01-1,5.36-5.08,7.42-7.07,3.52-3.41,4.43,3.9,5.53,5.61,1.26,1.96,6.77,4.79,6.86,5.95.06.78-3.4,4.74-3.64,7.26-.52,5.38,9.93,12.74,14.83,12.77-.02,3.87-4.91,7.74-5.03,8.23-.74,3.05,1.62,4.86-3.97,5.27.17-5.71-2.94-4.32-5.07-6.42-1.19-1.18-1.64-4.14-2.1-4.42-1.28-.78-3.99.66-5.36-1.14-.3-.4-3.65-8.9-3.56-9.4.22-1.22,3.19-.16,2.91-3.89-.19-2.53-2.62-3.94-4.7-2.61-3.08,1.98-1.01,12.83-1.2,15.27-.41,5.3-1.61,10.85-1.92,16.6-.28.87-.62.86-1,0-.04-17.25-4.48-39.02-2.87-54.37.93-8.9,4.21-8.8,8.07-14.93,1.6-2.54,4.87-9.37,4.84-12.22s-2.73-6.28-3.56-9.46c-1.25-4.75-3.01-11.29-3.48-16.02Z"/>
  <path class="cls-14" d="M1875,473c-.47,1.46-2.24,2.63-2.76,4.74-.27,1.1.72,16.4-3.11,10.62-1.57-2.37-1.56-5.96-4.12-7.36,4.24,8.79-9.01,12.9-9.05,19.48-.02,4.21,3.84,8.06,4.01,11.06.52,9.1-2.99,18.97-2.44,27.97.13,2.11,2,10.84,2.73,12.72,1.6,4.05,6.64,5.75,8.29.81.85-2.54-.85-6.82,2.44-6.06-.11,5.43,2.73,9.97,4.01,15-1.15-2.66-9.95-1.59-10.86-.86-1.53,1.23.03,10.01-3.14,11.37-3.82,1.63-1.06-9.69-1.09-10.91-.21-8.38-4.79-16.54-3.89-28.08.64-8.26,2.02-8.36,1.03-17.07-1.35-11.94-3.24-22.5-.04-34.45,7.41,2.36,3.76-.65,7.03-3.47,2.64-2.28,5.08-.52,6.02-1.04,1.27-.72,1.79-4.85,4.95-4.49Z"/>
  <path class="cls-14" d="M1423,1050q-.71,2.17,0,0c2.81.84,6.11,3.7,6.49,3.72.29.02,4.56-1.42,5.51-1.72-2.12,8.39-3.93,3.23-7.68,3.2-1.41-.01-2.27,1.71-3.65,1.63-1.7-.1-4.21-3.01-6.03-2.67-1.67.32-3.25,4.01-5.35,4.63-4.06,1.2-8.99-.94-11.65-.51s-5.16,5.49-10.64,2.72c3.49-1.86,13.97-1.1,3.97-5.54,1.22-3,1.55-5.8,5.03-6.46,1.24,2.2,3.81,1.53,1,0,6.55-2.06,16.75-.86,23,1Z"/>
  <path class="cls-14" d="M1587,1054c1.02,2.52,2.06,2.45,4.69,1.67,5.43-3.16,9.95-3.25,13.57-.29,11.55-1.71,10.35,2.87,2.74,8.62-1.03.19-2.84.06-4,0-2.43-1.52-4.76-1.85-7-1-.93.64-4.07,2.64-4.8,2.85-2.13.61-3.03-.85-3.2-.85-1.55.07-2.77-.98-3.66-3.13-.03,2.3-.81,3.68-2.34,4.13-2.23.25-1.51,1.33-4-1-1.35-4.17-4.03-10.41-8.33-5.39-1.71.18-4.72-.83-4.67-2.61,7.14-.05,14.07-1.15,21-3Z"/>
  <path class="cls-14" d="M982,1044l13.57-2.95c5.14.98,11.35-.32,16.86-1.13,2.36-.35,4.34-1.95,6.83-1.72,5.76.53,8.16,6.74,6.75,11.79,1.68,1.6,13.53-4.37,17.36-3.71.7.12,12.07,5.17,12.91,5.7,1.29.82.92,2.82,1.72,4.02-2.07-.02-5.64-.43-7.3-.02-.69.17-2.67,4.99-4.69,3.02-1.28-1.24,2.88-5.18,1.99-5.99-4.74,2.28-6.13-2.03-8.72-2.82-3.09-.94-14.74,2.37-15.27,1.81-.83-.87,3.01-6.1-2.08-10.42-4.24-3.59-4.33.99-7.47,1.46s-4.91-1.98-6.95-1.98c-2.35,0-3.73,2.47-5.16,2.71-2.03.33-4.07-2.23-7.41-1.37-1.92.49-1.86,2.53-2.6,2.65-2.48.38-6.58-1.65-10.33-1.04Z"/>
  <path class="cls-40" d="M1602,1051c4.66-.13,9.33-.13,14,0-2.78.7-5.99.77-7.99,2.52-.27,3.15,2.61-.17,4.95.93,4.67,2.2-1.23,8.87-4.96,9.55.32-3.95,6.05-3.43,4.99-7.99-3.66-.37-6.31-.2-8.5,2.99-2.01-8.81-10.43-.09-15.97-.96-2.59-.41-3.17-1.92-1.53-4.03,6.55-1.75,6.75-2.77,15-3Z"/>
  <path class="cls-14" d="M1500,1053c4.51-3.76,13.15-5.47,18.01-1.51,2.4,1.95-1.82,1.88-2.09,3.17-.34,1.62,1.27,4.21,1.08,4.33-4.03-.62-4.44.29-5,4.01-1.3-1.28-.92-3.16-1.97-4.57-.2-.27-4.74-4.27-5.03-4.43l-5-1Z"/>
  <path class="cls-40" d="M1716,1054c4.26,4.21-1.99,5.76-6.09,4.35,2.1,2.74,2.46,4.96,1.09,6.65-1.97.48-5.28,3.04-6.91,1.91-.31-.22-1.25-3.58-1.04-4.3.45-1.53,3.26-1.36,2.94-2.1-.17-.4-1.29-.88-1.38-1.48-.16-1.1.5-2.63.32-2.88-.13-.18-3.18-1.72-3.92-2.14.98-1.1,2.98-1.77,6-2,3.06.46,6.13.79,9,2Z"/>
  <path class="cls-14" d="M1716,1054c8.21,3.46-.86,4.46,1,6.99.36.48,4.87-.06,4,3.01-3.63.08-5.77-.04-10,1l-4-7.99c2.81-2.52,10.15,3.05,9-3.01Z"/>
  <path class="cls-14" d="M1209,1052c-2.75,2.16-6.44.18-9.77,1.73-2.06.96-2.34,3.18-3.7,4.3-3.11,2.55-14.34,1.4-13.53-2.52.74-3.57,17.64,1.08,9.99-4.51,7.1.96,9.77.85,17,1Z"/>
  <path class="cls-14" d="M1242,1047c-5.96-1.08-7.84,9.92-8.53,10.05-1.51.29-4.69.08-5.46-1.56-1.05-2.26,6.1-2.08,4.99-5.48-2.44.39-6.14-.61-8.28-.02-.99.27-1.18,2.21-2.28,2.9-3.12,1.97-9.54,1.64-12.43-.89,3.82.11,7.2,1.22,11,1-1.02-3.07-1.03-3.4,2.16-4.34,5.37-1.58,13.7-1.96,18.84-1.66Z"/>
  <path class="cls-5" d="M1866,323.99c-3.29-1.33-5.64,3.06-7.51,3.07-1.55,0-3.39-2.6-3.3-3.58.1-1.11,4.88-3.3,5.38-5.55,2.9.61,5.43,2.95,5.43,6.06Z"/>
  <path class="cls-14" d="M1321,1054c.98.06,2.14.74,3.45.8,3.26.14,8.1-1.9,11.89-.64,2.16.71,2.07,4.92,4.66,5.84-.37-.22-2.01.29-2.99-.47-1.87-1.45,0-4.45-4.52-4.64-4.82-.2-8.95,5.74-14.49,4.11l1.99-4.99Z"/>
  <path class="cls-40" d="M1769,1033c5.79-2.11,9.95-4.04,14-9,1.28,11.36-5.51,8.99-14,9Z"/>
  <path class="cls-19" d="M973,1054c-1.84,2.57-2.54,4.77-4,7-4.26,1.76-3.54-5.49-2.78-6.79.64-1.11,7.2-5.62,6.78-.21Z"/>
  <path class="cls-14" d="M1527,1055c-.03,2.66.67,3.69,3,5,2.65,7.37-6.25,2.49-10,2,1.76-.91,2.59-1.47,5-1.01l-2-5.98c1.29-.15,2.74.17,4,0Z"/>
  <path class="cls-40" d="M1840,920c3.09-.57,1.77,1.53,2.02,3.44.22,1.64.89,3.19.8,4.86l-6.82,9.7c3-8.23,3-9.65,4-18Z"/>
  <path class="cls-40" d="M1662,1051c-2.94,1.05-8.47,2.99-11.4,2.91-3.93-.1-7.79-3.37-10.22-3.62-4.19-.44-11.99,2.62-16.38-.29,2.26-.86,4.75-.86,7,0,11.04-.32,19.73,1.27,31,1Z"/>
  <path class="cls-40" d="M1547,1056c2.52,1.48,4.52,1.48,6,0,2.61.22,4.76.95,7,1,1.59-.79,3.42-.81,5,0,.33,0,.67,0,1,0,2.82,3.3,4.41.32,6.57,0,4.74-.68,6.73,3.81,6.43,7.99-1.54-1.44-4.39-7.04-5.5-6.98-.85.05-1.16,2.92-2.09,3.07-1.85.28-4.59-2.69-7.88-3.11-5.84-.74-10.8,2.23-12.96,2.06-1.45-.11-8.25-4.28-11.31-4.8-3.81-.65-7.61-.39-11.26.77-.41,1.83,1.55,2.74,2,3.99-2.82-.28-5.03-2.43-3-5,9.73-1.4,11.44.23,20,1Z"/>
  <path class="cls-40" d="M1400,1049c4.19-.36,8.75.25,12.99.01-.9,1.84-5.73,2.96-7.48,3.01-1.47.04-4.31-.4-6.44-.49-2.68-.12-.49-1.38-.07-2.53.32-.06.67.03,1,0Z"/>
  <path class="cls-40" d="M1697,1051c.87.28.86.62,0,1-5.46,3.34-11.93.94-18,0,2.58-2.7,6.99-.09,9.6-.1s5.14-1.06,8.4-.9Z"/>
  <path class="cls-14" d="M1118,1050l-15.59,4.03c-5.11-3.58-9.49.75-14.41-2.03,10.18-.17,19.88-1.08,30-2Z"/>
  <path class="cls-14" d="M1464,1048c3.99-.69,6.32-4.12,11.47-4.05,6.4.09,3.4,2.28,3.67,3.45.69,2.97,6.17-1.34,10.86,2.6-3.37-2.02-9.01.73-11.36-.09-2.56-.89-.95-4.72-2.17-4.95-3.25-.61-8.75.89-6.46,5.04l-6-2Z"/>
  <path class="cls-19" d="M1385.01,1056.99c1.82,11.1-4.7,7.32-5.01,0h5.01Z"/>
  <path class="cls-14" d="M927,1051c1.58-.91,7.82-3.96,8.96-2.98.24.21.14,3.65,1.26,4.76,1.34,1.33,4.42.32,5.78,3.22-5.84-1.4-9.81-5.15-16-5Z"/>
  <path class="cls-40" d="M1767,1034c-3.16,1.18-10.69,1.47-12.04,2.46s-.15,3.84-3.96,6.54c-.46-2.22-.94-6.71,1-8,4.44-1.77,10.01-.26,15-1Z"/>
  <path class="cls-40" d="M1841,910v-8c-.82-1.97-.83-4,0-6,0-3.66,0-7.34,0-11h1c-.45,8.38-.42,16.81-1,25Z"/>
  <path class="cls-19" d="M1488,1039c-5.71-.42-13.5,1.71-18-2,5.74.53,12.47.18,18,2Z"/>
  <path class="cls-19" d="M1793,55l-3.99,5.99,1.99-6.99c.42.14,1.82.8,2,1Z"/>
  <path class="cls-40" d="M1830,954c.42,3.92-.81,7.72-2.27,11.28-.63,1.54-.24,3.24-2.73,2.72,1.85-4.47,3.24-9.41,5-14Z"/>
  <path class="cls-14" d="M1267,1050c-4.61-.57-4.26,3.33-6.5,5.98-1.11-.49-1.89-2.56-2.5-2.98,4.97-2.19,2.47-4.67,9-3Z"/>
  <path class="cls-14" d="M1707,1052c-1.3,2-3.82,2.12-6,2-1.01-.58-3.29-.18-4-2v-1c2.16.11,7.96.69,10,1Z"/>
  <path class="cls-14" d="M1843,761c3.55-.34,1.13.85,1.08,2.57-.14,4.01-.33,8.47-.08,12.43-1.75-4.06-1.12-10.34-1-15Z"/>
  <path class="cls-14" d="M1752,1035l-1,8c-.36.25-.63.73-1,1,.39-2.55-.3-5.72-.04-8.38.25-1.22,1.54-.42,2.04-.62Z"/>
  <path class="cls-14" d="M926,1051c-.16,0-.78.99-1.59,1.02-2.74.1-5.05-2.28-5.41-5.02l7,4Z"/>
  <path class="cls-19" d="M1214,1040.01c-.94,2.22-4.79,3.25-6.99,2.98-.66-3.31,5.18-2.64,6.99-2.98Z"/>
  <path class="cls-14" d="M1138,1053c-5.12-1.15-3.53-1.16-8-4,3.55-.67,5.63,1.86,8,4Z"/>
  <path class="cls-14" d="M1553,1056c-.58,4.96-3.61,2.49-6,0,1.97.18,4.03-.17,6,0Z"/>
  <path class="cls-19" d="M952,1062c-1-.02-2,.02-3,0l-.49-4c2.84-.47,3.75,1.39,3.49,4Z"/>
  <path class="cls-40" d="M1792,1012c-1.74,2.23-2.79,5.97-5,6,1-1.9.39-5.77,5-6Z"/>
  <path class="cls-14" d="M1127,1047c-3.65,1.62-3.8,2.57-8,3,4.37-1.62,3.2-5.73,8-3Z"/>
  <path class="cls-40" d="M1674,1051c-3.66.04-7.34-.05-11,0,3-2.57,7.88-.52,11,0Z"/>
  <path class="cls-19" d="M1870,424c.63-.62,1.55-5.28,4.49-5.01l-3.49,5.01h-1Z"/>
  <path class="cls-14" d="M1377,1062c-5.3,1.64-4.24.46-7-2,2.48.45,4.65,1,7,2Z"/>
  <path class="cls-14" d="M1859.51,589.01c3.41-.77,1.74,3.95-.01,3.97-1.39.02-2.15-3.48.01-3.97Z"/>
  <path class="cls-5" d="M1844.01,231c-.62-.67.47-3.96,1.49-3.98,2.98-.03.28,5.88-1.49,3.98Z"/>
  <path class="cls-14" d="M1631,1050c-2.32.07-4.67,0-7,0h-2c2.44-.45,6.41-2.64,9,0Z"/>
  <path class="cls-14" d="M1616,1051c-3.95-.86-7.93,1.07-11.54,1.09-1.33,0-2.33-1.09-2.46-1.09,4.59.73,10.6-2.86,14,0Z"/>
  <path class="cls-14" d="M967,1063c-2.43,1.74-3.36-.28-4-3,1.25,1.06,2.68,2.03,4,3Z"/>
  <path class="cls-5" d="M1840,265.99c-.37.34-3.74.63-2.99-1.48,1.11-3.09,4.03.51,2.99,1.48Z"/>
  <path class="cls-14" d="M1151,1054c-4.64,1.06-3.31.41-7,0h7Z"/>
  <path class="cls-14" d="M1079,1051c-1.88-.14-4.88.77-6-1,3.17-.15,4.27.77,6,1Z"/>
  <path class="cls-40" d="M1505,1054h-6c.34-.34.63-.69,1-1,2.32-.47,3.24.09,5,1Z"/>
  <rect class="cls-19" x="1861.01" y="462.01" width="2.99" height="1.99"/>
  <path class="cls-14" d="M1841,902c-1.64-1.01-1.61-5.05,0-6,0,2,0,4,0,6Z"/>
  <rect class="cls-19" x="1800.01" y="992.01" width="1.99" height="2.99"/>
  <path class="cls-14" d="M1191,1051c-3.23-.51-6.73-.74-10-1,.32-.03,1.13-1.01,3.28-.96,1.64.04,5.31.89,6.72,1.96Z"/>
  <path class="cls-14" d="M1172,1051c-.85,1.62-3.4.94-5,1,1.1-.15,2.8-.78,5-1Z"/>
  <path class="cls-14" d="M1565,1057c-1.66.01-3.34.04-5,0,.66-1.58,4.34-1.58,5,0Z"/>
  <path class="cls-14" d="M1166,1052c-.66,1.58-4.34,1.58-5,0,1.56-.23,3.43.22,5,0Z"/>
  <path class="cls-14" d="M1453,1049c-.43.06-3.72,2.7-5,0,1.67-.02,3.33.01,5,0Z"/>
  <path class="cls-14" d="M1276,1055l-3-3c3.63,1.54,1.7.92,3,3Z"/>
  <path class="cls-36" d="M1233,24c1.59,1.89.69,3.85,1.54,5.97.99,2.48,5.85,5.96,6.42,9.57,2.14,1.48,13.91-1.39,17.53-1.61,3.39-.21,6.32,1.56,9.22.35,3.4-1.42,6.94-8.04,8.74-11.37,1.07-2-.49-4.45,3.05-4.45,4.21,0,1.52,3.6,3.07,4.68.66.46,14.26,5.5,15.06,5.57,1.71.15,3.76-.96,5.87-.79,12.01.96,14.27,2.87,25.78-2.13,1.79-.78,6.25-.55,6.72-2.32.37-1.38-3.5-7.4-4.54-8.41-2.05-1.98-5.61-.77-4.45-6.04,3.94-1.42,5.53,2.02,7.76,2.74,4.63,1.49,11.34,1.73,15.63-.85,2.39-1.44,2.27-4.53,4.1-3.88,1.56,3.23,12.08,7.12,14.51,5.52.99-.65,1.27-3.07,2.61-3.44,3.26-.9,5.27,7.9,8.39,1.93-5.89-1.95-3.13-7.32,2.54-7.99,3.47-.41-1.01,3.37-.55,6.38.59,3.89,3.46,7.73,5.46,10.7.6.88.43,2.73.59,2.88.55.52,3.5-.85,4.59-.87,3.47-.06,6.51-1.1,7.89-1.08,1.85.02,3.39,2.61,5.15,2.78,1.57.15,3.37-1.81,5.81-1.84,3.8-.05,16.81,4.2,19.09,1.09,3.56-4.85-7.84-2.51-9.55-6.04,4.54-1.6,8.64-2.49,13.55-2.06,2.59.23,9.82,2.59,12.38,3.62,1.76.7,3.85,3.48,5.61,3.48,2.05,0,1.98-2.19,3.19-3.08,5.01-3.68,4.65.33,6.96.89,1.49.36,3.09-1.07,4.61-.71,1.05.25,2.09,2.01,3.45,2.6,2.32,1.02,7.44,3.38,9.69,3.22,6.25-.44,11.73-8.85,14.07-13.98,5.6.76-.43,6.87.49,7.99,1.53,1.87,2.44-2.48,3.6-2.85,8.12-2.64,6.12,3.82,9.09,4.66,1.24.35,11.86,1.14,13.7,1.1,2.42-.05,5.95-1.32,8.64-1.36l17.44-6.54c1.68,4.5,2.35,4.42,7.53,4,.58-3.9-.54-3.06-4-3,.66-4.26,3.69-6.57,7.99-5.99l-1,3.99c1.95.15,7.67,1.78,7.72-1.49.02-1.34-4.48-2.51,3.28-4.5,1.26,5.21-2.37,6.31,3.98,8.5-3.81,5.61-9.02,6.19-15.48,6.3-15.72.26-31.19-.11-46.99,1.21-9.65.8-18.68,4.15-27.17,4.72-2.8.18-6.64-2.83-9.86-2.78-2.4.04-4.57,2.14-5.83,1.9-1.04-.2-4.17-3.92-5.16-3.82-1.23.12-1.21,3.3-1.71,3.76-.26.23-5.51,1.25-6.34,1.25-25.42-.02-54.74-5.08-79.94-3.02-7.89.64-17.26,3.93-25.13,4.87-21.65,2.59-41.81-1.13-63.12,3.88-14.21,3.34-28.78,3.89-43.73,4.32-11.55.33-5.79-3.16-7.72-9.38-.82-2.64-4.01-3.25-1.8-8.7Z"/>
  <path class="cls-36" d="M1325.99,11.99c-.65.65-5.54-.03-4.99-2.48.87-3.83,7.28.2,4.99,2.48Z"/>
  <path class="cls-36" d="M1582,10c-2.11,3.77-6.77,6-9,1,4.63-.11,3.95.38,9-1Z"/>
  <path class="cls-36" d="M1461.01,20c-.86-4.15,2.5-7.49,3.99-2.51-1.26,1.23-2.11,2.89-3.99,2.51Z"/>
  <path class="cls-36" d="M1036.99,19.01c2.64,2.67-5.92,6.81-3.99,1.5.48-1.33,3.4-2.09,3.99-1.5Z"/>
  <path class="cls-36" d="M1672,10.01c1.07.96-2.05,4.06-2.99,2.99-1.51-1.71,1.3-4.49,2.99-2.99Z"/>
  <path class="cls-36" d="M1694.99,11.01c1.1,1.15-2.2,4.91-3.99,1.49.43-.75,3.64-1.86,3.99-1.49Z"/>
  <path class="cls-36" d="M1680.99,12.01v1.99s-3.99,0-3.99,0c.53-1.99,2.13-2.24,3.99-1.98Z"/>
  <polygon class="cls-36" points="1700 10.99 1696 10.5 1698.99 8 1700 10.99"/>
  <path class="cls-19" d="M546,1051.99c-2.64.37-5-.4-5.99-2.98,2.67-.15,6.23-.53,5.99,2.98Z"/>
  <path class="cls-19" d="M262.99,1061.99c-.57.57-2.98-.83-2.97-1.49,0-2.77,4.49-.02,2.97,1.49Z"/>
  <path class="cls-19" d="M44,302.01c.67-.62,3.96.47,3.98,1.49.03,2.98-5.88.28-3.98-1.49Z"/>
  <path class="cls-40" d="M1589,1065c-2.42.06-3.99.77-6,1-.87-7.63,4.34-8.38,6-1Z"/>
  <path class="cls-40" d="M1597,1063c1.19-.82,1.7-4.02,4.99-3-.29,1.94.26,3.17,2.01,4-2.36-.12-4.59-1.19-7-1Z"/>
  <path class="cls-40" d="M1829.5,999.02c.74,0,3.73,3.35.99,3.97s-2.94-4-.99-3.97Z"/>
  <rect class="cls-40" x="1782.01" y="1035.01" width="3.99" height="1.99"/>
  <path class="cls-40" d="M1637.99,1066.99c-.57.57-2.98-.83-2.97-1.49,0-2.77,4.49-.02,2.97,1.49Z"/>
  <path class="cls-19" d="M1043,1064c-1.68,1.49-4.51-1.27-2.99-3,.95-1.08,4.05,2.05,2.99,3Z"/>
  <rect class="cls-14" x="1871.01" y="807.01" width="3.99" height="1.99"/>
  <path class="cls-19" d="M178.01,386.99c-2.2-2.53,3.97-2.58,3.97-.49,0,1.54-3.41,1.14-3.97.49Z"/>
  <path class="cls-19" d="M75,115c-.38-1.03,2.1-2.94,2.99-.48.96,2.62-2.77,1.08-2.99.48Z"/>
  <path class="cls-19" d="M112.99,90.01c.57.57-.83,2.98-1.49,2.97-2.77,0-.02-4.49,1.49-2.97Z"/>
  <path class="cls-28" d="M1073,57.01c.25-.34,4.42-.99,5.45-1.06,38.85-2.75,80.17,2.66,119.04,4.05,7.45,3.38-4.68,5.04-7.95,5.03-19.35-.05-39.49-3.45-59.01-4.08-15.36-.49-31.97,1.17-47.08.08-1.79-.13-12.6-1.06-10.46-4.03Z"/>
  <path class="cls-32" d="M1447,1034l-2-3.99c4.02-1.32,8.28-1.18,12.49-1,7.15.31,23.13,1.73,29.8,3.2,1.75.38,7.12,4.5,5.7,5.79l-46-3.99Z"/>
  <path class="cls-30" d="M586.79,1033.29c18.89-2,52.61-.8,71.61,1.8,7.96,1.09,6.29,4.31-.86,4.95-13,1.18-30.63-1.69-44.01-2.09-11.13-.33-22.1.98-33.09.09-10.67-.87,1.61-4.25,6.34-4.75Z"/>
  <path class="cls-17" d="M1840.01,844c1.58.09,5.52,8.11,2.49,7.98-1.42-.06-2.87-6.45-2.49-7.98Z"/>
  <path class="cls-40" d="M1423,1050c3.18,1.25-.15,5.45-4,.5.29-.83,3.58-.66,4-.5Z"/>
  <path class="cls-40" d="M1514.99,1051.01c2.99,2.27-7.09,3.15-7.99.49l7.99-.49Z"/>
  <path class="cls-39" d="M1357,20c.15-.97-.24-3.74,0-3.99,2.04-2.05,11.48,4.77,0,3.99Z"/>
</svg>